solid CATIA STL
  facet normal  -0.000000e+000  0.000000e+000  1.000000e+000
    outer loop
      vertex -8.333554e-001  1.247204e+000  5.000000e+000
      vertex -3.851669e+000  1.079187e+000  5.000000e+000
      vertex -1.060660e+000  1.060660e+000  5.000000e+000
    endloop
  endfacet
  facet normal  -0.000000e+000  0.000000e+000  1.000000e+000
    outer loop
      vertex -1.471178e+000 -2.926355e-001  5.000000e+000
      vertex -3.962744e+000 -5.446666e-001  5.000000e+000
      vertex -1.385819e+000 -5.740252e-001  5.000000e+000
    endloop
  endfacet
  facet normal  0.000000e+000  -0.000000e+000  1.000000e+000
    outer loop
      vertex  8.333554e-001  1.247204e+000  5.000000e+000
      vertex  1.060660e+000  1.060660e+000  5.000000e+000
      vertex  3.851669e+000  1.079187e+000  5.000000e+000
    endloop
  endfacet
  facet normal  -0.000000e+000  -0.000000e+000  1.000000e+000
    outer loop
      vertex -3.668845e+000 -1.593604e+000  5.000000e+000
      vertex -3.417678e+000 -2.078336e+000  5.000000e+000
      vertex -3.102845e+000 -2.524352e+000  5.000000e+000
    endloop
  endfacet
  facet normal  -0.000000e+000  -0.000000e+000  1.000000e+000
    outer loop
      vertex -3.668845e+000 -1.593604e+000  5.000000e+000
      vertex -3.102845e+000 -2.524352e+000  5.000000e+000
      vertex -2.730213e+000 -2.923344e+000  5.000000e+000
    endloop
  endfacet
  facet normal  -0.000000e+000  -0.000000e+000  1.000000e+000
    outer loop
      vertex -3.668845e+000 -1.593604e+000  5.000000e+000
      vertex -2.730213e+000 -2.923344e+000  5.000000e+000
      vertex -2.306721e+000 -3.267879e+000  5.000000e+000
    endloop
  endfacet
  facet normal  -0.000000e+000  -0.000000e+000  1.000000e+000
    outer loop
      vertex -3.668845e+000 -1.593604e+000  5.000000e+000
      vertex -2.306721e+000 -3.267879e+000  5.000000e+000
      vertex -1.840260e+000 -3.551541e+000  5.000000e+000
    endloop
  endfacet
  facet normal  -0.000000e+000  -0.000000e+000  1.000000e+000
    outer loop
      vertex -3.668845e+000 -1.593604e+000  5.000000e+000
      vertex -1.840260e+000 -3.551541e+000  5.000000e+000
      vertex -1.339518e+000 -3.769044e+000  5.000000e+000
    endloop
  endfacet
  facet normal  -0.000000e+000  -0.000000e+000  1.000000e+000
    outer loop
      vertex -3.668845e+000 -1.593604e+000  5.000000e+000
      vertex -1.339518e+000 -3.769044e+000  5.000000e+000
      vertex -8.138241e-001 -3.916336e+000  5.000000e+000
    endloop
  endfacet
  facet normal  -0.000000e+000  -0.000000e+000  1.000000e+000
    outer loop
      vertex -3.668845e+000 -1.593604e+000  5.000000e+000
      vertex -8.138241e-001 -3.916336e+000  5.000000e+000
      vertex -2.729697e-001 -3.990675e+000  5.000000e+000
    endloop
  endfacet
  facet normal  0.000000e+000  -0.000000e+000  9.999999e-001
    outer loop
      vertex -3.668845e+000 -1.593604e+000  5.000000e+000
      vertex -2.729697e-001 -3.990675e+000  5.000000e+000
      vertex  2.729697e-001 -3.990675e+000  5.000000e+000
    endloop
  endfacet
  facet normal  0.000000e+000  0.000000e+000  1.000000e+000
    outer loop
      vertex -3.668845e+000 -1.593604e+000  5.000000e+000
      vertex  2.729697e-001 -3.990675e+000  5.000000e+000
      vertex -2.755364e-016 -1.500000e+000  5.000000e+000
    endloop
  endfacet
  facet normal  0.000000e+000  0.000000e+000  1.000000e+000
    outer loop
      vertex -3.668845e+000 -1.593604e+000  5.000000e+000
      vertex -2.755364e-016 -1.500000e+000  5.000000e+000
      vertex -2.926355e-001 -1.471178e+000  5.000000e+000
    endloop
  endfacet
  facet normal  0.000000e+000  0.000000e+000  1.000000e+000
    outer loop
      vertex -3.668845e+000 -1.593604e+000  5.000000e+000
      vertex -2.926355e-001 -1.471178e+000  5.000000e+000
      vertex -5.740252e-001 -1.385819e+000  5.000000e+000
    endloop
  endfacet
  facet normal  0.000000e+000  0.000000e+000  1.000000e+000
    outer loop
      vertex -3.668845e+000 -1.593604e+000  5.000000e+000
      vertex -5.740252e-001 -1.385819e+000  5.000000e+000
      vertex -8.333554e-001 -1.247204e+000  5.000000e+000
    endloop
  endfacet
  facet normal  0.000000e+000  0.000000e+000  1.000000e+000
    outer loop
      vertex -3.668845e+000 -1.593604e+000  5.000000e+000
      vertex -8.333554e-001 -1.247204e+000  5.000000e+000
      vertex -1.060660e+000 -1.060660e+000  5.000000e+000
    endloop
  endfacet
  facet normal  0.000000e+000  0.000000e+000  1.000000e+000
    outer loop
      vertex -3.668845e+000 -1.593604e+000  5.000000e+000
      vertex -1.060660e+000 -1.060660e+000  5.000000e+000
      vertex -3.851669e+000 -1.079187e+000  5.000000e+000
    endloop
  endfacet
  facet normal  0.000000e+000  -0.000000e+000  1.000000e+000
    outer loop
      vertex -2.755364e-016 -1.500000e+000  5.000000e+000
      vertex  2.729697e-001 -3.990675e+000  5.000000e+000
      vertex  8.138241e-001 -3.916336e+000  5.000000e+000
    endloop
  endfacet
  facet normal  0.000000e+000  -0.000000e+000  1.000000e+000
    outer loop
      vertex -2.755364e-016 -1.500000e+000  5.000000e+000
      vertex  8.138241e-001 -3.916336e+000  5.000000e+000
      vertex  1.339518e+000 -3.769044e+000  5.000000e+000
    endloop
  endfacet
  facet normal  0.000000e+000  -0.000000e+000  1.000000e+000
    outer loop
      vertex -2.755364e-016 -1.500000e+000  5.000000e+000
      vertex  1.339518e+000 -3.769044e+000  5.000000e+000
      vertex  1.840260e+000 -3.551541e+000  5.000000e+000
    endloop
  endfacet
  facet normal  0.000000e+000  -0.000000e+000  1.000000e+000
    outer loop
      vertex -2.755364e-016 -1.500000e+000  5.000000e+000
      vertex  1.840260e+000 -3.551541e+000  5.000000e+000
      vertex  2.306721e+000 -3.267879e+000  5.000000e+000
    endloop
  endfacet
  facet normal  0.000000e+000  -0.000000e+000  1.000000e+000
    outer loop
      vertex -2.755364e-016 -1.500000e+000  5.000000e+000
      vertex  2.306721e+000 -3.267879e+000  5.000000e+000
      vertex  2.730213e+000 -2.923344e+000  5.000000e+000
    endloop
  endfacet
  facet normal  0.000000e+000  -0.000000e+000  9.999999e-001
    outer loop
      vertex -2.755364e-016 -1.500000e+000  5.000000e+000
      vertex  2.730213e+000 -2.923344e+000  5.000000e+000
      vertex  3.102845e+000 -2.524352e+000  5.000000e+000
    endloop
  endfacet
  facet normal  0.000000e+000  -0.000000e+000  9.999999e-001
    outer loop
      vertex -2.755364e-016 -1.500000e+000  5.000000e+000
      vertex  3.102845e+000 -2.524352e+000  5.000000e+000
      vertex  3.417678e+000 -2.078336e+000  5.000000e+000
    endloop
  endfacet
  facet normal  0.000000e+000  -0.000000e+000  9.999999e-001
    outer loop
      vertex -2.755364e-016 -1.500000e+000  5.000000e+000
      vertex  3.417678e+000 -2.078336e+000  5.000000e+000
      vertex  3.668845e+000 -1.593604e+000  5.000000e+000
    endloop
  endfacet
  facet normal  0.000000e+000  -0.000000e+000  1.000000e+000
    outer loop
      vertex  9.184548e-017  1.500000e+000  5.000000e+000
      vertex  2.926355e-001  1.471178e+000  5.000000e+000
      vertex  3.668845e+000  1.593604e+000  5.000000e+000
    endloop
  endfacet
  facet normal  0.000000e+000  0.000000e+000  9.999999e-001
    outer loop
      vertex  9.184548e-017  1.500000e+000  5.000000e+000
      vertex  3.668845e+000  1.593604e+000  5.000000e+000
      vertex  3.417678e+000  2.078336e+000  5.000000e+000
    endloop
  endfacet
  facet normal  0.000000e+000  0.000000e+000  9.999999e-001
    outer loop
      vertex  9.184548e-017  1.500000e+000  5.000000e+000
      vertex  3.417678e+000  2.078336e+000  5.000000e+000
      vertex  3.102845e+000  2.524352e+000  5.000000e+000
    endloop
  endfacet
  facet normal  0.000000e+000  0.000000e+000  9.999999e-001
    outer loop
      vertex  9.184548e-017  1.500000e+000  5.000000e+000
      vertex  3.102845e+000  2.524352e+000  5.000000e+000
      vertex  2.730213e+000  2.923344e+000  5.000000e+000
    endloop
  endfacet
  facet normal  0.000000e+000  0.000000e+000  1.000000e+000
    outer loop
      vertex  9.184548e-017  1.500000e+000  5.000000e+000
      vertex  2.730213e+000  2.923344e+000  5.000000e+000
      vertex  2.306721e+000  3.267879e+000  5.000000e+000
    endloop
  endfacet
  facet normal  0.000000e+000  0.000000e+000  1.000000e+000
    outer loop
      vertex  9.184548e-017  1.500000e+000  5.000000e+000
      vertex  2.306721e+000  3.267879e+000  5.000000e+000
      vertex  1.840260e+000  3.551541e+000  5.000000e+000
    endloop
  endfacet
  facet normal  0.000000e+000  0.000000e+000  1.000000e+000
    outer loop
      vertex  9.184548e-017  1.500000e+000  5.000000e+000
      vertex  1.840260e+000  3.551541e+000  5.000000e+000
      vertex  1.339518e+000  3.769044e+000  5.000000e+000
    endloop
  endfacet
  facet normal  0.000000e+000  0.000000e+000  1.000000e+000
    outer loop
      vertex  9.184548e-017  1.500000e+000  5.000000e+000
      vertex  1.339518e+000  3.769044e+000  5.000000e+000
      vertex  8.138241e-001  3.916336e+000  5.000000e+000
    endloop
  endfacet
  facet normal  0.000000e+000  0.000000e+000  1.000000e+000
    outer loop
      vertex  9.184548e-017  1.500000e+000  5.000000e+000
      vertex  8.138241e-001  3.916336e+000  5.000000e+000
      vertex  2.729697e-001  3.990675e+000  5.000000e+000
    endloop
  endfacet
  facet normal  0.000000e+000  0.000000e+000  1.000000e+000
    outer loop
      vertex  9.184548e-017  1.500000e+000  5.000000e+000
      vertex  2.729697e-001  3.990675e+000  5.000000e+000
      vertex -2.729697e-001  3.990675e+000  5.000000e+000
    endloop
  endfacet
  facet normal  0.000000e+000  0.000000e+000  1.000000e+000
    outer loop
      vertex  9.184548e-017  1.500000e+000  5.000000e+000
      vertex -2.729697e-001  3.990675e+000  5.000000e+000
      vertex -8.138241e-001  3.916336e+000  5.000000e+000
    endloop
  endfacet
  facet normal  0.000000e+000  0.000000e+000  1.000000e+000
    outer loop
      vertex  9.184548e-017  1.500000e+000  5.000000e+000
      vertex -8.138241e-001  3.916336e+000  5.000000e+000
      vertex -1.339518e+000  3.769044e+000  5.000000e+000
    endloop
  endfacet
  facet normal  0.000000e+000  0.000000e+000  1.000000e+000
    outer loop
      vertex  9.184548e-017  1.500000e+000  5.000000e+000
      vertex -1.339518e+000  3.769044e+000  5.000000e+000
      vertex -1.840260e+000  3.551541e+000  5.000000e+000
    endloop
  endfacet
  facet normal  0.000000e+000  0.000000e+000  1.000000e+000
    outer loop
      vertex  9.184548e-017  1.500000e+000  5.000000e+000
      vertex -1.840260e+000  3.551541e+000  5.000000e+000
      vertex -2.306721e+000  3.267879e+000  5.000000e+000
    endloop
  endfacet
  facet normal  0.000000e+000  0.000000e+000  1.000000e+000
    outer loop
      vertex  9.184548e-017  1.500000e+000  5.000000e+000
      vertex -2.306721e+000  3.267879e+000  5.000000e+000
      vertex -2.730213e+000  2.923344e+000  5.000000e+000
    endloop
  endfacet
  facet normal  0.000000e+000  0.000000e+000  9.999999e-001
    outer loop
      vertex  9.184548e-017  1.500000e+000  5.000000e+000
      vertex -2.730213e+000  2.923344e+000  5.000000e+000
      vertex -3.102845e+000  2.524352e+000  5.000000e+000
    endloop
  endfacet
  facet normal  0.000000e+000  0.000000e+000  9.999999e-001
    outer loop
      vertex  9.184548e-017  1.500000e+000  5.000000e+000
      vertex -3.102845e+000  2.524352e+000  5.000000e+000
      vertex -3.417678e+000  2.078336e+000  5.000000e+000
    endloop
  endfacet
  facet normal  0.000000e+000  0.000000e+000  9.999999e-001
    outer loop
      vertex  9.184548e-017  1.500000e+000  5.000000e+000
      vertex -3.417678e+000  2.078336e+000  5.000000e+000
      vertex -3.668845e+000  1.593604e+000  5.000000e+000
    endloop
  endfacet
  facet normal  0.000000e+000  0.000000e+000  1.000000e+000
    outer loop
      vertex  9.184548e-017  1.500000e+000  5.000000e+000
      vertex -3.668845e+000  1.593604e+000  5.000000e+000
      vertex -2.926355e-001  1.471178e+000  5.000000e+000
    endloop
  endfacet
  facet normal  0.000000e+000  0.000000e+000  1.000000e+000
    outer loop
      vertex -3.962744e+000  5.446666e-001  5.000000e+000
      vertex -4.000000e+000  4.898425e-016  5.000000e+000
      vertex -1.471178e+000  2.926355e-001  5.000000e+000
    endloop
  endfacet
  facet normal  0.000000e+000  -0.000000e+000  1.000000e+000
    outer loop
      vertex -3.962744e+000  5.446666e-001  5.000000e+000
      vertex -1.471178e+000  2.926355e-001  5.000000e+000
      vertex -1.385819e+000  5.740252e-001  5.000000e+000
    endloop
  endfacet
  facet normal  0.000000e+000  -0.000000e+000  1.000000e+000
    outer loop
      vertex -3.962744e+000  5.446666e-001  5.000000e+000
      vertex -1.385819e+000  5.740252e-001  5.000000e+000
      vertex -1.247204e+000  8.333554e-001  5.000000e+000
    endloop
  endfacet
  facet normal  0.000000e+000  -0.000000e+000  1.000000e+000
    outer loop
      vertex -3.962744e+000  5.446666e-001  5.000000e+000
      vertex -1.247204e+000  8.333554e-001  5.000000e+000
      vertex -1.060660e+000  1.060660e+000  5.000000e+000
    endloop
  endfacet
  facet normal  0.000000e+000  0.000000e+000  1.000000e+000
    outer loop
      vertex -3.962744e+000  5.446666e-001  5.000000e+000
      vertex -1.060660e+000  1.060660e+000  5.000000e+000
      vertex -3.851669e+000  1.079187e+000  5.000000e+000
    endloop
  endfacet
  facet normal  0.000000e+000  0.000000e+000  1.000000e+000
    outer loop
      vertex -3.851669e+000 -1.079187e+000  5.000000e+000
      vertex -1.060660e+000 -1.060660e+000  5.000000e+000
      vertex -1.247204e+000 -8.333554e-001  5.000000e+000
    endloop
  endfacet
  facet normal  0.000000e+000  0.000000e+000  1.000000e+000
    outer loop
      vertex -3.851669e+000 -1.079187e+000  5.000000e+000
      vertex -1.247204e+000 -8.333554e-001  5.000000e+000
      vertex -1.385819e+000 -5.740252e-001  5.000000e+000
    endloop
  endfacet
  facet normal  0.000000e+000  0.000000e+000  1.000000e+000
    outer loop
      vertex -3.851669e+000 -1.079187e+000  5.000000e+000
      vertex -1.385819e+000 -5.740252e-001  5.000000e+000
      vertex -3.962744e+000 -5.446666e-001  5.000000e+000
    endloop
  endfacet
  facet normal  0.000000e+000  0.000000e+000  1.000000e+000
    outer loop
      vertex  3.668845e+000 -1.593604e+000  5.000000e+000
      vertex  3.851669e+000 -1.079187e+000  5.000000e+000
      vertex  1.060660e+000 -1.060660e+000  5.000000e+000
    endloop
  endfacet
  facet normal  0.000000e+000  0.000000e+000  1.000000e+000
    outer loop
      vertex  3.668845e+000 -1.593604e+000  5.000000e+000
      vertex  1.060660e+000 -1.060660e+000  5.000000e+000
      vertex  8.333554e-001 -1.247204e+000  5.000000e+000
    endloop
  endfacet
  facet normal  0.000000e+000  0.000000e+000  1.000000e+000
    outer loop
      vertex  3.668845e+000 -1.593604e+000  5.000000e+000
      vertex  8.333554e-001 -1.247204e+000  5.000000e+000
      vertex  5.740252e-001 -1.385819e+000  5.000000e+000
    endloop
  endfacet
  facet normal  0.000000e+000  0.000000e+000  1.000000e+000
    outer loop
      vertex  3.668845e+000 -1.593604e+000  5.000000e+000
      vertex  5.740252e-001 -1.385819e+000  5.000000e+000
      vertex  2.926355e-001 -1.471178e+000  5.000000e+000
    endloop
  endfacet
  facet normal  0.000000e+000  0.000000e+000  1.000000e+000
    outer loop
      vertex  3.668845e+000 -1.593604e+000  5.000000e+000
      vertex  2.926355e-001 -1.471178e+000  5.000000e+000
      vertex -2.755364e-016 -1.500000e+000  5.000000e+000
    endloop
  endfacet
  facet normal  0.000000e+000  0.000000e+000  1.000000e+000
    outer loop
      vertex -2.926355e-001  1.471178e+000  5.000000e+000
      vertex -3.668845e+000  1.593604e+000  5.000000e+000
      vertex -5.740252e-001  1.385819e+000  5.000000e+000
    endloop
  endfacet
  facet normal  0.000000e+000  0.000000e+000  1.000000e+000
    outer loop
      vertex -5.740252e-001  1.385819e+000  5.000000e+000
      vertex -3.668845e+000  1.593604e+000  5.000000e+000
      vertex -3.851669e+000  1.079187e+000  5.000000e+000
    endloop
  endfacet
  facet normal  0.000000e+000  0.000000e+000  1.000000e+000
    outer loop
      vertex -5.740252e-001  1.385819e+000  5.000000e+000
      vertex -3.851669e+000  1.079187e+000  5.000000e+000
      vertex -8.333554e-001  1.247204e+000  5.000000e+000
    endloop
  endfacet
  facet normal  0.000000e+000  0.000000e+000  1.000000e+000
    outer loop
      vertex -3.962744e+000 -5.446666e-001  5.000000e+000
      vertex -1.471178e+000 -2.926355e-001  5.000000e+000
      vertex -4.000000e+000  4.898425e-016  5.000000e+000
    endloop
  endfacet
  facet normal  0.000000e+000  0.000000e+000  1.000000e+000
    outer loop
      vertex -4.000000e+000  4.898425e-016  5.000000e+000
      vertex -1.471178e+000 -2.926355e-001  5.000000e+000
      vertex -1.500000e+000  1.836910e-016  5.000000e+000
    endloop
  endfacet
  facet normal  0.000000e+000  -0.000000e+000  1.000000e+000
    outer loop
      vertex -4.000000e+000  4.898425e-016  5.000000e+000
      vertex -1.500000e+000  1.836910e-016  5.000000e+000
      vertex -1.471178e+000  2.926355e-001  5.000000e+000
    endloop
  endfacet
  facet normal  -0.000000e+000  0.000000e+000  1.000000e+000
    outer loop
      vertex  3.668845e+000  1.593604e+000  5.000000e+000
      vertex  2.926355e-001  1.471178e+000  5.000000e+000
      vertex  3.851669e+000  1.079187e+000  5.000000e+000
    endloop
  endfacet
  facet normal  0.000000e+000  0.000000e+000  1.000000e+000
    outer loop
      vertex  3.851669e+000  1.079187e+000  5.000000e+000
      vertex  2.926355e-001  1.471178e+000  5.000000e+000
      vertex  5.740252e-001  1.385819e+000  5.000000e+000
    endloop
  endfacet
  facet normal  0.000000e+000  0.000000e+000  1.000000e+000
    outer loop
      vertex  3.851669e+000  1.079187e+000  5.000000e+000
      vertex  5.740252e-001  1.385819e+000  5.000000e+000
      vertex  8.333554e-001  1.247204e+000  5.000000e+000
    endloop
  endfacet
  facet normal  -0.000000e+000  0.000000e+000  1.000000e+000
    outer loop
      vertex  3.851669e+000  1.079187e+000  5.000000e+000
      vertex  1.060660e+000  1.060660e+000  5.000000e+000
      vertex  3.962744e+000  5.446666e-001  5.000000e+000
    endloop
  endfacet
  facet normal  0.000000e+000  0.000000e+000  1.000000e+000
    outer loop
      vertex  3.962744e+000  5.446666e-001  5.000000e+000
      vertex  1.060660e+000  1.060660e+000  5.000000e+000
      vertex  1.247204e+000  8.333554e-001  5.000000e+000
    endloop
  endfacet
  facet normal  0.000000e+000  0.000000e+000  1.000000e+000
    outer loop
      vertex  3.962744e+000  5.446666e-001  5.000000e+000
      vertex  1.247204e+000  8.333554e-001  5.000000e+000
      vertex  1.385819e+000  5.740252e-001  5.000000e+000
    endloop
  endfacet
  facet normal  0.000000e+000  0.000000e+000  1.000000e+000
    outer loop
      vertex  3.962744e+000  5.446666e-001  5.000000e+000
      vertex  1.385819e+000  5.740252e-001  5.000000e+000
      vertex  4.000000e+000  0.000000e+000  5.000000e+000
    endloop
  endfacet
  facet normal  0.000000e+000  0.000000e+000  1.000000e+000
    outer loop
      vertex  4.000000e+000  0.000000e+000  5.000000e+000
      vertex  1.385819e+000  5.740252e-001  5.000000e+000
      vertex  1.471178e+000  2.926355e-001  5.000000e+000
    endloop
  endfacet
  facet normal  0.000000e+000  0.000000e+000  1.000000e+000
    outer loop
      vertex  4.000000e+000  0.000000e+000  5.000000e+000
      vertex  1.471178e+000  2.926355e-001  5.000000e+000
      vertex  1.500000e+000  0.000000e+000  5.000000e+000
    endloop
  endfacet
  facet normal  -0.000000e+000  0.000000e+000  1.000000e+000
    outer loop
      vertex  4.000000e+000  0.000000e+000  5.000000e+000
      vertex  1.500000e+000  0.000000e+000  5.000000e+000
      vertex  3.962744e+000 -5.446666e-001  5.000000e+000
    endloop
  endfacet
  facet normal  0.000000e+000  0.000000e+000  1.000000e+000
    outer loop
      vertex  3.962744e+000 -5.446666e-001  5.000000e+000
      vertex  1.500000e+000  0.000000e+000  5.000000e+000
      vertex  1.471178e+000 -2.926355e-001  5.000000e+000
    endloop
  endfacet
  facet normal  0.000000e+000  0.000000e+000  1.000000e+000
    outer loop
      vertex  3.962744e+000 -5.446666e-001  5.000000e+000
      vertex  1.471178e+000 -2.926355e-001  5.000000e+000
      vertex  1.385819e+000 -5.740252e-001  5.000000e+000
    endloop
  endfacet
  facet normal  -0.000000e+000  0.000000e+000  1.000000e+000
    outer loop
      vertex  3.962744e+000 -5.446666e-001  5.000000e+000
      vertex  1.385819e+000 -5.740252e-001  5.000000e+000
      vertex  3.851669e+000 -1.079187e+000  5.000000e+000
    endloop
  endfacet
  facet normal  0.000000e+000  0.000000e+000  1.000000e+000
    outer loop
      vertex  3.851669e+000 -1.079187e+000  5.000000e+000
      vertex  1.385819e+000 -5.740252e-001  5.000000e+000
      vertex  1.247204e+000 -8.333554e-001  5.000000e+000
    endloop
  endfacet
  facet normal  0.000000e+000  0.000000e+000  9.999999e-001
    outer loop
      vertex  3.851669e+000 -1.079187e+000  5.000000e+000
      vertex  1.247204e+000 -8.333554e-001  5.000000e+000
      vertex  1.060660e+000 -1.060660e+000  5.000000e+000
    endloop
  endfacet
  facet normal  0.000000e+000  0.000000e+000 -1.000000e+000
    outer loop
      vertex -1.060660e+000  1.060660e+000  0.000000e+000
      vertex -3.851669e+000  1.079187e+000  0.000000e+000
      vertex -8.333554e-001  1.247204e+000  0.000000e+000
    endloop
  endfacet
  facet normal  0.000000e+000  0.000000e+000 -1.000000e+000
    outer loop
      vertex -1.385819e+000 -5.740252e-001  0.000000e+000
      vertex -3.962744e+000 -5.446666e-001  0.000000e+000
      vertex -1.471178e+000 -2.926355e-001  0.000000e+000
    endloop
  endfacet
  facet normal  0.000000e+000  0.000000e+000 -1.000000e+000
    outer loop
      vertex  3.851669e+000  1.079187e+000  0.000000e+000
      vertex  1.060660e+000  1.060660e+000  0.000000e+000
      vertex  8.333554e-001  1.247204e+000  0.000000e+000
    endloop
  endfacet
  facet normal  0.000000e+000  0.000000e+000 -1.000000e+000
    outer loop
      vertex -3.668845e+000 -1.593604e+000  0.000000e+000
      vertex -3.851669e+000 -1.079187e+000  0.000000e+000
      vertex -1.060660e+000 -1.060660e+000  0.000000e+000
    endloop
  endfacet
  facet normal  0.000000e+000  -0.000000e+000 -1.000000e+000
    outer loop
      vertex -3.668845e+000 -1.593604e+000  0.000000e+000
      vertex -1.060660e+000 -1.060660e+000  0.000000e+000
      vertex -8.333554e-001 -1.247204e+000  0.000000e+000
    endloop
  endfacet
  facet normal  0.000000e+000  -0.000000e+000 -1.000000e+000
    outer loop
      vertex -3.668845e+000 -1.593604e+000  0.000000e+000
      vertex -8.333554e-001 -1.247204e+000  0.000000e+000
      vertex -5.740252e-001 -1.385819e+000  0.000000e+000
    endloop
  endfacet
  facet normal  0.000000e+000  -0.000000e+000 -1.000000e+000
    outer loop
      vertex -3.668845e+000 -1.593604e+000  0.000000e+000
      vertex -5.740252e-001 -1.385819e+000  0.000000e+000
      vertex -2.926355e-001 -1.471178e+000  0.000000e+000
    endloop
  endfacet
  facet normal  0.000000e+000  -0.000000e+000 -1.000000e+000
    outer loop
      vertex -3.668845e+000 -1.593604e+000  0.000000e+000
      vertex -2.926355e-001 -1.471178e+000  0.000000e+000
      vertex -2.755364e-016 -1.500000e+000  0.000000e+000
    endloop
  endfacet
  facet normal  0.000000e+000  -0.000000e+000 -1.000000e+000
    outer loop
      vertex -3.668845e+000 -1.593604e+000  0.000000e+000
      vertex -2.755364e-016 -1.500000e+000  0.000000e+000
      vertex  2.729697e-001 -3.990675e+000  0.000000e+000
    endloop
  endfacet
  facet normal  0.000000e+000  0.000000e+000 -9.999999e-001
    outer loop
      vertex -3.668845e+000 -1.593604e+000  0.000000e+000
      vertex  2.729697e-001 -3.990675e+000  0.000000e+000
      vertex -2.729697e-001 -3.990675e+000  0.000000e+000
    endloop
  endfacet
  facet normal  0.000000e+000  0.000000e+000 -1.000000e+000
    outer loop
      vertex -3.668845e+000 -1.593604e+000  0.000000e+000
      vertex -2.729697e-001 -3.990675e+000  0.000000e+000
      vertex -8.138241e-001 -3.916336e+000  0.000000e+000
    endloop
  endfacet
  facet normal  0.000000e+000  0.000000e+000 -1.000000e+000
    outer loop
      vertex -3.668845e+000 -1.593604e+000  0.000000e+000
      vertex -8.138241e-001 -3.916336e+000  0.000000e+000
      vertex -1.339518e+000 -3.769044e+000  0.000000e+000
    endloop
  endfacet
  facet normal  0.000000e+000  0.000000e+000 -1.000000e+000
    outer loop
      vertex -3.668845e+000 -1.593604e+000  0.000000e+000
      vertex -1.339518e+000 -3.769044e+000  0.000000e+000
      vertex -1.840260e+000 -3.551541e+000  0.000000e+000
    endloop
  endfacet
  facet normal  0.000000e+000  0.000000e+000 -1.000000e+000
    outer loop
      vertex -3.668845e+000 -1.593604e+000  0.000000e+000
      vertex -1.840260e+000 -3.551541e+000  0.000000e+000
      vertex -2.306721e+000 -3.267879e+000  0.000000e+000
    endloop
  endfacet
  facet normal  0.000000e+000  0.000000e+000 -1.000000e+000
    outer loop
      vertex -3.668845e+000 -1.593604e+000  0.000000e+000
      vertex -2.306721e+000 -3.267879e+000  0.000000e+000
      vertex -2.730213e+000 -2.923344e+000  0.000000e+000
    endloop
  endfacet
  facet normal  0.000000e+000  0.000000e+000 -1.000000e+000
    outer loop
      vertex -3.668845e+000 -1.593604e+000  0.000000e+000
      vertex -2.730213e+000 -2.923344e+000  0.000000e+000
      vertex -3.102845e+000 -2.524352e+000  0.000000e+000
    endloop
  endfacet
  facet normal  0.000000e+000  0.000000e+000 -1.000000e+000
    outer loop
      vertex -3.668845e+000 -1.593604e+000  0.000000e+000
      vertex -3.102845e+000 -2.524352e+000  0.000000e+000
      vertex -3.417678e+000 -2.078336e+000  0.000000e+000
    endloop
  endfacet
  facet normal  -0.000000e+000  0.000000e+000 -9.999999e-001
    outer loop
      vertex -2.755364e-016 -1.500000e+000  0.000000e+000
      vertex  3.668845e+000 -1.593604e+000  0.000000e+000
      vertex  3.417678e+000 -2.078336e+000  0.000000e+000
    endloop
  endfacet
  facet normal  -0.000000e+000  0.000000e+000 -9.999999e-001
    outer loop
      vertex -2.755364e-016 -1.500000e+000  0.000000e+000
      vertex  3.417678e+000 -2.078336e+000  0.000000e+000
      vertex  3.102845e+000 -2.524352e+000  0.000000e+000
    endloop
  endfacet
  facet normal  -0.000000e+000  0.000000e+000 -9.999999e-001
    outer loop
      vertex -2.755364e-016 -1.500000e+000  0.000000e+000
      vertex  3.102845e+000 -2.524352e+000  0.000000e+000
      vertex  2.730213e+000 -2.923344e+000  0.000000e+000
    endloop
  endfacet
  facet normal  -0.000000e+000  0.000000e+000 -1.000000e+000
    outer loop
      vertex -2.755364e-016 -1.500000e+000  0.000000e+000
      vertex  2.730213e+000 -2.923344e+000  0.000000e+000
      vertex  2.306721e+000 -3.267879e+000  0.000000e+000
    endloop
  endfacet
  facet normal  -0.000000e+000  0.000000e+000 -1.000000e+000
    outer loop
      vertex -2.755364e-016 -1.500000e+000  0.000000e+000
      vertex  2.306721e+000 -3.267879e+000  0.000000e+000
      vertex  1.840260e+000 -3.551541e+000  0.000000e+000
    endloop
  endfacet
  facet normal  -0.000000e+000  0.000000e+000 -1.000000e+000
    outer loop
      vertex -2.755364e-016 -1.500000e+000  0.000000e+000
      vertex  1.840260e+000 -3.551541e+000  0.000000e+000
      vertex  1.339518e+000 -3.769044e+000  0.000000e+000
    endloop
  endfacet
  facet normal  -0.000000e+000  0.000000e+000 -1.000000e+000
    outer loop
      vertex -2.755364e-016 -1.500000e+000  0.000000e+000
      vertex  1.339518e+000 -3.769044e+000  0.000000e+000
      vertex  8.138241e-001 -3.916336e+000  0.000000e+000
    endloop
  endfacet
  facet normal  -0.000000e+000  0.000000e+000 -1.000000e+000
    outer loop
      vertex -2.755364e-016 -1.500000e+000  0.000000e+000
      vertex  8.138241e-001 -3.916336e+000  0.000000e+000
      vertex  2.729697e-001 -3.990675e+000  0.000000e+000
    endloop
  endfacet
  facet normal  0.000000e+000  0.000000e+000 -1.000000e+000
    outer loop
      vertex  9.184548e-017  1.500000e+000  0.000000e+000
      vertex -2.926355e-001  1.471178e+000  0.000000e+000
      vertex -3.668845e+000  1.593604e+000  0.000000e+000
    endloop
  endfacet
  facet normal  0.000000e+000  0.000000e+000 -9.999999e-001
    outer loop
      vertex  9.184548e-017  1.500000e+000  0.000000e+000
      vertex -3.668845e+000  1.593604e+000  0.000000e+000
      vertex -3.417678e+000  2.078336e+000  0.000000e+000
    endloop
  endfacet
  facet normal  0.000000e+000  0.000000e+000 -9.999999e-001
    outer loop
      vertex  9.184548e-017  1.500000e+000  0.000000e+000
      vertex -3.417678e+000  2.078336e+000  0.000000e+000
      vertex -3.102845e+000  2.524352e+000  0.000000e+000
    endloop
  endfacet
  facet normal  0.000000e+000  0.000000e+000 -9.999999e-001
    outer loop
      vertex  9.184548e-017  1.500000e+000  0.000000e+000
      vertex -3.102845e+000  2.524352e+000  0.000000e+000
      vertex -2.730213e+000  2.923344e+000  0.000000e+000
    endloop
  endfacet
  facet normal  0.000000e+000  0.000000e+000 -1.000000e+000
    outer loop
      vertex  9.184548e-017  1.500000e+000  0.000000e+000
      vertex -2.730213e+000  2.923344e+000  0.000000e+000
      vertex -2.306721e+000  3.267879e+000  0.000000e+000
    endloop
  endfacet
  facet normal  0.000000e+000  0.000000e+000 -1.000000e+000
    outer loop
      vertex  9.184548e-017  1.500000e+000  0.000000e+000
      vertex -2.306721e+000  3.267879e+000  0.000000e+000
      vertex -1.840260e+000  3.551541e+000  0.000000e+000
    endloop
  endfacet
  facet normal  0.000000e+000  0.000000e+000 -1.000000e+000
    outer loop
      vertex  9.184548e-017  1.500000e+000  0.000000e+000
      vertex -1.840260e+000  3.551541e+000  0.000000e+000
      vertex -1.339518e+000  3.769044e+000  0.000000e+000
    endloop
  endfacet
  facet normal  0.000000e+000  0.000000e+000 -1.000000e+000
    outer loop
      vertex  9.184548e-017  1.500000e+000  0.000000e+000
      vertex -1.339518e+000  3.769044e+000  0.000000e+000
      vertex -8.138241e-001  3.916336e+000  0.000000e+000
    endloop
  endfacet
  facet normal  0.000000e+000  0.000000e+000 -1.000000e+000
    outer loop
      vertex  9.184548e-017  1.500000e+000  0.000000e+000
      vertex -8.138241e-001  3.916336e+000  0.000000e+000
      vertex -2.729697e-001  3.990675e+000  0.000000e+000
    endloop
  endfacet
  facet normal  0.000000e+000  0.000000e+000 -1.000000e+000
    outer loop
      vertex  9.184548e-017  1.500000e+000  0.000000e+000
      vertex -2.729697e-001  3.990675e+000  0.000000e+000
      vertex  2.729697e-001  3.990675e+000  0.000000e+000
    endloop
  endfacet
  facet normal  0.000000e+000  -0.000000e+000 -1.000000e+000
    outer loop
      vertex  9.184548e-017  1.500000e+000  0.000000e+000
      vertex  2.729697e-001  3.990675e+000  0.000000e+000
      vertex  8.138241e-001  3.916336e+000  0.000000e+000
    endloop
  endfacet
  facet normal  0.000000e+000  -0.000000e+000 -1.000000e+000
    outer loop
      vertex  9.184548e-017  1.500000e+000  0.000000e+000
      vertex  8.138241e-001  3.916336e+000  0.000000e+000
      vertex  1.339518e+000  3.769044e+000  0.000000e+000
    endloop
  endfacet
  facet normal  0.000000e+000  -0.000000e+000 -1.000000e+000
    outer loop
      vertex  9.184548e-017  1.500000e+000  0.000000e+000
      vertex  1.339518e+000  3.769044e+000  0.000000e+000
      vertex  1.840260e+000  3.551541e+000  0.000000e+000
    endloop
  endfacet
  facet normal  0.000000e+000  -0.000000e+000 -1.000000e+000
    outer loop
      vertex  9.184548e-017  1.500000e+000  0.000000e+000
      vertex  1.840260e+000  3.551541e+000  0.000000e+000
      vertex  2.306721e+000  3.267879e+000  0.000000e+000
    endloop
  endfacet
  facet normal  0.000000e+000  -0.000000e+000 -1.000000e+000
    outer loop
      vertex  9.184548e-017  1.500000e+000  0.000000e+000
      vertex  2.306721e+000  3.267879e+000  0.000000e+000
      vertex  2.730213e+000  2.923344e+000  0.000000e+000
    endloop
  endfacet
  facet normal  0.000000e+000  -0.000000e+000 -9.999999e-001
    outer loop
      vertex  9.184548e-017  1.500000e+000  0.000000e+000
      vertex  2.730213e+000  2.923344e+000  0.000000e+000
      vertex  3.102845e+000  2.524352e+000  0.000000e+000
    endloop
  endfacet
  facet normal  0.000000e+000  -0.000000e+000 -9.999999e-001
    outer loop
      vertex  9.184548e-017  1.500000e+000  0.000000e+000
      vertex  3.102845e+000  2.524352e+000  0.000000e+000
      vertex  3.417678e+000  2.078336e+000  0.000000e+000
    endloop
  endfacet
  facet normal  0.000000e+000  -0.000000e+000 -9.999999e-001
    outer loop
      vertex  9.184548e-017  1.500000e+000  0.000000e+000
      vertex  3.417678e+000  2.078336e+000  0.000000e+000
      vertex  3.668845e+000  1.593604e+000  0.000000e+000
    endloop
  endfacet
  facet normal  0.000000e+000  0.000000e+000 -1.000000e+000
    outer loop
      vertex  9.184548e-017  1.500000e+000  0.000000e+000
      vertex  3.668845e+000  1.593604e+000  0.000000e+000
      vertex  2.926355e-001  1.471178e+000  0.000000e+000
    endloop
  endfacet
  facet normal  0.000000e+000  -0.000000e+000 -1.000000e+000
    outer loop
      vertex -3.962744e+000  5.446666e-001  0.000000e+000
      vertex -3.851669e+000  1.079187e+000  0.000000e+000
      vertex -1.060660e+000  1.060660e+000  0.000000e+000
    endloop
  endfacet
  facet normal  0.000000e+000  0.000000e+000 -1.000000e+000
    outer loop
      vertex -3.962744e+000  5.446666e-001  0.000000e+000
      vertex -1.060660e+000  1.060660e+000  0.000000e+000
      vertex -1.247204e+000  8.333554e-001  0.000000e+000
    endloop
  endfacet
  facet normal  0.000000e+000  0.000000e+000 -1.000000e+000
    outer loop
      vertex -3.962744e+000  5.446666e-001  0.000000e+000
      vertex -1.247204e+000  8.333554e-001  0.000000e+000
      vertex -1.385819e+000  5.740252e-001  0.000000e+000
    endloop
  endfacet
  facet normal  0.000000e+000  0.000000e+000 -1.000000e+000
    outer loop
      vertex -3.962744e+000  5.446666e-001  0.000000e+000
      vertex -1.385819e+000  5.740252e-001  0.000000e+000
      vertex -1.471178e+000  2.926355e-001  0.000000e+000
    endloop
  endfacet
  facet normal  -0.000000e+000  0.000000e+000 -1.000000e+000
    outer loop
      vertex -3.962744e+000  5.446666e-001  0.000000e+000
      vertex -1.471178e+000  2.926355e-001  0.000000e+000
      vertex -4.000000e+000  4.898425e-016  0.000000e+000
    endloop
  endfacet
  facet normal  0.000000e+000  0.000000e+000 -1.000000e+000
    outer loop
      vertex -3.851669e+000 -1.079187e+000  0.000000e+000
      vertex -3.962744e+000 -5.446666e-001  0.000000e+000
      vertex -1.385819e+000 -5.740252e-001  0.000000e+000
    endloop
  endfacet
  facet normal  0.000000e+000  -0.000000e+000 -1.000000e+000
    outer loop
      vertex -3.851669e+000 -1.079187e+000  0.000000e+000
      vertex -1.385819e+000 -5.740252e-001  0.000000e+000
      vertex -1.247204e+000 -8.333554e-001  0.000000e+000
    endloop
  endfacet
  facet normal  0.000000e+000  -0.000000e+000 -9.999999e-001
    outer loop
      vertex -3.851669e+000 -1.079187e+000  0.000000e+000
      vertex -1.247204e+000 -8.333554e-001  0.000000e+000
      vertex -1.060660e+000 -1.060660e+000  0.000000e+000
    endloop
  endfacet
  facet normal  0.000000e+000  0.000000e+000 -1.000000e+000
    outer loop
      vertex  3.668845e+000 -1.593604e+000  0.000000e+000
      vertex -2.755364e-016 -1.500000e+000  0.000000e+000
      vertex  2.926355e-001 -1.471178e+000  0.000000e+000
    endloop
  endfacet
  facet normal  0.000000e+000  0.000000e+000 -1.000000e+000
    outer loop
      vertex  3.668845e+000 -1.593604e+000  0.000000e+000
      vertex  2.926355e-001 -1.471178e+000  0.000000e+000
      vertex  5.740252e-001 -1.385819e+000  0.000000e+000
    endloop
  endfacet
  facet normal  0.000000e+000  0.000000e+000 -1.000000e+000
    outer loop
      vertex  3.668845e+000 -1.593604e+000  0.000000e+000
      vertex  5.740252e-001 -1.385819e+000  0.000000e+000
      vertex  8.333554e-001 -1.247204e+000  0.000000e+000
    endloop
  endfacet
  facet normal  0.000000e+000  0.000000e+000 -1.000000e+000
    outer loop
      vertex  3.668845e+000 -1.593604e+000  0.000000e+000
      vertex  8.333554e-001 -1.247204e+000  0.000000e+000
      vertex  1.060660e+000 -1.060660e+000  0.000000e+000
    endloop
  endfacet
  facet normal  0.000000e+000  0.000000e+000 -1.000000e+000
    outer loop
      vertex  3.668845e+000 -1.593604e+000  0.000000e+000
      vertex  1.060660e+000 -1.060660e+000  0.000000e+000
      vertex  3.851669e+000 -1.079187e+000  0.000000e+000
    endloop
  endfacet
  facet normal  0.000000e+000  0.000000e+000 -1.000000e+000
    outer loop
      vertex -8.333554e-001  1.247204e+000  0.000000e+000
      vertex -3.851669e+000  1.079187e+000  0.000000e+000
      vertex -5.740252e-001  1.385819e+000  0.000000e+000
    endloop
  endfacet
  facet normal  -0.000000e+000  0.000000e+000 -1.000000e+000
    outer loop
      vertex -5.740252e-001  1.385819e+000  0.000000e+000
      vertex -3.851669e+000  1.079187e+000  0.000000e+000
      vertex -3.668845e+000  1.593604e+000  0.000000e+000
    endloop
  endfacet
  facet normal  0.000000e+000  0.000000e+000 -1.000000e+000
    outer loop
      vertex -5.740252e-001  1.385819e+000  0.000000e+000
      vertex -3.668845e+000  1.593604e+000  0.000000e+000
      vertex -2.926355e-001  1.471178e+000  0.000000e+000
    endloop
  endfacet
  facet normal  0.000000e+000  0.000000e+000 -1.000000e+000
    outer loop
      vertex -1.471178e+000  2.926355e-001  0.000000e+000
      vertex -1.500000e+000  1.836910e-016  0.000000e+000
      vertex -4.000000e+000  4.898425e-016  0.000000e+000
    endloop
  endfacet
  facet normal  0.000000e+000  0.000000e+000 -1.000000e+000
    outer loop
      vertex -4.000000e+000  4.898425e-016  0.000000e+000
      vertex -1.500000e+000  1.836910e-016  0.000000e+000
      vertex -1.471178e+000 -2.926355e-001  0.000000e+000
    endloop
  endfacet
  facet normal  -0.000000e+000  0.000000e+000 -1.000000e+000
    outer loop
      vertex -4.000000e+000  4.898425e-016  0.000000e+000
      vertex -1.471178e+000 -2.926355e-001  0.000000e+000
      vertex -3.962744e+000 -5.446666e-001  0.000000e+000
    endloop
  endfacet
  facet normal  0.000000e+000  0.000000e+000 -1.000000e+000
    outer loop
      vertex  8.333554e-001  1.247204e+000  0.000000e+000
      vertex  5.740252e-001  1.385819e+000  0.000000e+000
      vertex  3.851669e+000  1.079187e+000  0.000000e+000
    endloop
  endfacet
  facet normal  0.000000e+000  0.000000e+000 -1.000000e+000
    outer loop
      vertex  3.851669e+000  1.079187e+000  0.000000e+000
      vertex  5.740252e-001  1.385819e+000  0.000000e+000
      vertex  2.926355e-001  1.471178e+000  0.000000e+000
    endloop
  endfacet
  facet normal  0.000000e+000  0.000000e+000 -1.000000e+000
    outer loop
      vertex  3.851669e+000  1.079187e+000  0.000000e+000
      vertex  2.926355e-001  1.471178e+000  0.000000e+000
      vertex  3.668845e+000  1.593604e+000  0.000000e+000
    endloop
  endfacet
  facet normal  0.000000e+000  0.000000e+000 -1.000000e+000
    outer loop
      vertex  1.385819e+000  5.740252e-001  0.000000e+000
      vertex  1.247204e+000  8.333554e-001  0.000000e+000
      vertex  3.962744e+000  5.446666e-001  0.000000e+000
    endloop
  endfacet
  facet normal  0.000000e+000  0.000000e+000 -1.000000e+000
    outer loop
      vertex  3.962744e+000  5.446666e-001  0.000000e+000
      vertex  1.247204e+000  8.333554e-001  0.000000e+000
      vertex  1.060660e+000  1.060660e+000  0.000000e+000
    endloop
  endfacet
  facet normal  0.000000e+000  0.000000e+000 -1.000000e+000
    outer loop
      vertex  3.962744e+000  5.446666e-001  0.000000e+000
      vertex  1.060660e+000  1.060660e+000  0.000000e+000
      vertex  3.851669e+000  1.079187e+000  0.000000e+000
    endloop
  endfacet
  facet normal  0.000000e+000  0.000000e+000 -1.000000e+000
    outer loop
      vertex  1.500000e+000  0.000000e+000  0.000000e+000
      vertex  1.471178e+000  2.926355e-001  0.000000e+000
      vertex  4.000000e+000  0.000000e+000  0.000000e+000
    endloop
  endfacet
  facet normal  0.000000e+000  0.000000e+000 -1.000000e+000
    outer loop
      vertex  4.000000e+000  0.000000e+000  0.000000e+000
      vertex  1.471178e+000  2.926355e-001  0.000000e+000
      vertex  1.385819e+000  5.740252e-001  0.000000e+000
    endloop
  endfacet
  facet normal  0.000000e+000  0.000000e+000 -1.000000e+000
    outer loop
      vertex  4.000000e+000  0.000000e+000  0.000000e+000
      vertex  1.385819e+000  5.740252e-001  0.000000e+000
      vertex  3.962744e+000  5.446666e-001  0.000000e+000
    endloop
  endfacet
  facet normal  0.000000e+000  -0.000000e+000 -1.000000e+000
    outer loop
      vertex  1.385819e+000 -5.740252e-001  0.000000e+000
      vertex  1.471178e+000 -2.926355e-001  0.000000e+000
      vertex  3.962744e+000 -5.446666e-001  0.000000e+000
    endloop
  endfacet
  facet normal  0.000000e+000  0.000000e+000 -1.000000e+000
    outer loop
      vertex  3.962744e+000 -5.446666e-001  0.000000e+000
      vertex  1.471178e+000 -2.926355e-001  0.000000e+000
      vertex  1.500000e+000  0.000000e+000  0.000000e+000
    endloop
  endfacet
  facet normal  0.000000e+000  0.000000e+000 -1.000000e+000
    outer loop
      vertex  3.962744e+000 -5.446666e-001  0.000000e+000
      vertex  1.500000e+000  0.000000e+000  0.000000e+000
      vertex  4.000000e+000  0.000000e+000  0.000000e+000
    endloop
  endfacet
  facet normal  0.000000e+000  -0.000000e+000 -9.999999e-001
    outer loop
      vertex  1.060660e+000 -1.060660e+000  0.000000e+000
      vertex  1.247204e+000 -8.333554e-001  0.000000e+000
      vertex  3.851669e+000 -1.079187e+000  0.000000e+000
    endloop
  endfacet
  facet normal  0.000000e+000  0.000000e+000 -1.000000e+000
    outer loop
      vertex  3.851669e+000 -1.079187e+000  0.000000e+000
      vertex  1.247204e+000 -8.333554e-001  0.000000e+000
      vertex  1.385819e+000 -5.740252e-001  0.000000e+000
    endloop
  endfacet
  facet normal  0.000000e+000  0.000000e+000 -1.000000e+000
    outer loop
      vertex  3.851669e+000 -1.079187e+000  0.000000e+000
      vertex  1.385819e+000 -5.740252e-001  0.000000e+000
      vertex  3.962744e+000 -5.446666e-001  0.000000e+000
    endloop
  endfacet
  facet normal  9.801710e-002 -9.951847e-001  0.000000e+000
    outer loop
      vertex  9.184548e-017  1.500000e+000  0.000000e+000
      vertex -2.926355e-001  1.471178e+000  5.000000e+000
      vertex -2.926355e-001  1.471178e+000  0.000000e+000
    endloop
  endfacet
  facet normal  2.902846e-001 -9.569403e-001  0.000000e+000
    outer loop
      vertex -2.926355e-001  1.471178e+000  0.000000e+000
      vertex -2.926355e-001  1.471178e+000  5.000000e+000
      vertex -5.740252e-001  1.385819e+000  5.000000e+000
    endloop
  endfacet
  facet normal  2.902846e-001 -9.569403e-001  0.000000e+000
    outer loop
      vertex -2.926355e-001  1.471178e+000  0.000000e+000
      vertex -5.740252e-001  1.385819e+000  5.000000e+000
      vertex -5.740252e-001  1.385819e+000  0.000000e+000
    endloop
  endfacet
  facet normal  4.713967e-001 -8.819212e-001  0.000000e+000
    outer loop
      vertex -5.740252e-001  1.385819e+000  0.000000e+000
      vertex -5.740252e-001  1.385819e+000  5.000000e+000
      vertex -8.333554e-001  1.247204e+000  5.000000e+000
    endloop
  endfacet
  facet normal  4.713967e-001 -8.819212e-001  0.000000e+000
    outer loop
      vertex -5.740252e-001  1.385819e+000  0.000000e+000
      vertex -8.333554e-001  1.247204e+000  5.000000e+000
      vertex -8.333554e-001  1.247204e+000  0.000000e+000
    endloop
  endfacet
  facet normal  6.343935e-001 -7.730103e-001  0.000000e+000
    outer loop
      vertex -8.333554e-001  1.247204e+000  0.000000e+000
      vertex -8.333554e-001  1.247204e+000  5.000000e+000
      vertex -1.060660e+000  1.060660e+000  5.000000e+000
    endloop
  endfacet
  facet normal  6.343935e-001 -7.730103e-001  0.000000e+000
    outer loop
      vertex -8.333554e-001  1.247204e+000  0.000000e+000
      vertex -1.060660e+000  1.060660e+000  5.000000e+000
      vertex -1.060660e+000  1.060660e+000  0.000000e+000
    endloop
  endfacet
  facet normal  7.730103e-001 -6.343935e-001  0.000000e+000
    outer loop
      vertex -1.060660e+000  1.060660e+000  0.000000e+000
      vertex -1.060660e+000  1.060660e+000  5.000000e+000
      vertex -1.247204e+000  8.333554e-001  5.000000e+000
    endloop
  endfacet
  facet normal  7.730103e-001 -6.343935e-001  0.000000e+000
    outer loop
      vertex -1.060660e+000  1.060660e+000  0.000000e+000
      vertex -1.247204e+000  8.333554e-001  5.000000e+000
      vertex -1.247204e+000  8.333554e-001  0.000000e+000
    endloop
  endfacet
  facet normal  8.819212e-001 -4.713967e-001  0.000000e+000
    outer loop
      vertex -1.247204e+000  8.333554e-001  0.000000e+000
      vertex -1.247204e+000  8.333554e-001  5.000000e+000
      vertex -1.385819e+000  5.740252e-001  5.000000e+000
    endloop
  endfacet
  facet normal  8.819212e-001 -4.713967e-001  0.000000e+000
    outer loop
      vertex -1.247204e+000  8.333554e-001  0.000000e+000
      vertex -1.385819e+000  5.740252e-001  5.000000e+000
      vertex -1.385819e+000  5.740252e-001  0.000000e+000
    endloop
  endfacet
  facet normal  9.569403e-001 -2.902846e-001  0.000000e+000
    outer loop
      vertex -1.385819e+000  5.740252e-001  0.000000e+000
      vertex -1.385819e+000  5.740252e-001  5.000000e+000
      vertex -1.471178e+000  2.926355e-001  5.000000e+000
    endloop
  endfacet
  facet normal  9.569403e-001 -2.902846e-001  0.000000e+000
    outer loop
      vertex -1.385819e+000  5.740252e-001  0.000000e+000
      vertex -1.471178e+000  2.926355e-001  5.000000e+000
      vertex -1.471178e+000  2.926355e-001  0.000000e+000
    endloop
  endfacet
  facet normal  9.951847e-001 -9.801710e-002  0.000000e+000
    outer loop
      vertex -1.471178e+000  2.926355e-001  0.000000e+000
      vertex -1.471178e+000  2.926355e-001  5.000000e+000
      vertex -1.500000e+000  1.836910e-016  5.000000e+000
    endloop
  endfacet
  facet normal  9.951847e-001 -9.801710e-002  0.000000e+000
    outer loop
      vertex -1.471178e+000  2.926355e-001  0.000000e+000
      vertex -1.500000e+000  1.836910e-016  5.000000e+000
      vertex -1.500000e+000  1.836910e-016  0.000000e+000
    endloop
  endfacet
  facet normal  9.801710e-002 -9.951847e-001  0.000000e+000
    outer loop
      vertex -2.926355e-001  1.471178e+000  5.000000e+000
      vertex  9.184548e-017  1.500000e+000  0.000000e+000
      vertex  9.184548e-017  1.500000e+000  5.000000e+000
    endloop
  endfacet
  facet normal -9.801710e-002 -9.951847e-001  -0.000000e+000
    outer loop
      vertex  9.184548e-017  1.500000e+000  5.000000e+000
      vertex  9.184548e-017  1.500000e+000  0.000000e+000
      vertex  2.926355e-001  1.471178e+000  0.000000e+000
    endloop
  endfacet
  facet normal -9.801710e-002 -9.951847e-001  0.000000e+000
    outer loop
      vertex  9.184548e-017  1.500000e+000  5.000000e+000
      vertex  2.926355e-001  1.471178e+000  0.000000e+000
      vertex  2.926355e-001  1.471178e+000  5.000000e+000
    endloop
  endfacet
  facet normal -2.902846e-001 -9.569403e-001  -0.000000e+000
    outer loop
      vertex  2.926355e-001  1.471178e+000  5.000000e+000
      vertex  2.926355e-001  1.471178e+000  0.000000e+000
      vertex  5.740252e-001  1.385819e+000  0.000000e+000
    endloop
  endfacet
  facet normal -2.902846e-001 -9.569403e-001  0.000000e+000
    outer loop
      vertex  2.926355e-001  1.471178e+000  5.000000e+000
      vertex  5.740252e-001  1.385819e+000  0.000000e+000
      vertex  5.740252e-001  1.385819e+000  5.000000e+000
    endloop
  endfacet
  facet normal -4.713967e-001 -8.819212e-001  -0.000000e+000
    outer loop
      vertex  5.740252e-001  1.385819e+000  5.000000e+000
      vertex  5.740252e-001  1.385819e+000  0.000000e+000
      vertex  8.333554e-001  1.247204e+000  0.000000e+000
    endloop
  endfacet
  facet normal -4.713967e-001 -8.819212e-001  0.000000e+000
    outer loop
      vertex  5.740252e-001  1.385819e+000  5.000000e+000
      vertex  8.333554e-001  1.247204e+000  0.000000e+000
      vertex  8.333554e-001  1.247204e+000  5.000000e+000
    endloop
  endfacet
  facet normal -6.343935e-001 -7.730103e-001  -0.000000e+000
    outer loop
      vertex  8.333554e-001  1.247204e+000  5.000000e+000
      vertex  8.333554e-001  1.247204e+000  0.000000e+000
      vertex  1.060660e+000  1.060660e+000  0.000000e+000
    endloop
  endfacet
  facet normal -6.343935e-001 -7.730103e-001  0.000000e+000
    outer loop
      vertex  8.333554e-001  1.247204e+000  5.000000e+000
      vertex  1.060660e+000  1.060660e+000  0.000000e+000
      vertex  1.060660e+000  1.060660e+000  5.000000e+000
    endloop
  endfacet
  facet normal -7.730103e-001 -6.343935e-001  -0.000000e+000
    outer loop
      vertex  1.060660e+000  1.060660e+000  5.000000e+000
      vertex  1.060660e+000  1.060660e+000  0.000000e+000
      vertex  1.247204e+000  8.333554e-001  0.000000e+000
    endloop
  endfacet
  facet normal -7.730103e-001 -6.343935e-001  0.000000e+000
    outer loop
      vertex  1.060660e+000  1.060660e+000  5.000000e+000
      vertex  1.247204e+000  8.333554e-001  0.000000e+000
      vertex  1.247204e+000  8.333554e-001  5.000000e+000
    endloop
  endfacet
  facet normal -8.819212e-001 -4.713967e-001  -0.000000e+000
    outer loop
      vertex  1.247204e+000  8.333554e-001  5.000000e+000
      vertex  1.247204e+000  8.333554e-001  0.000000e+000
      vertex  1.385819e+000  5.740252e-001  0.000000e+000
    endloop
  endfacet
  facet normal -8.819212e-001 -4.713967e-001  0.000000e+000
    outer loop
      vertex  1.247204e+000  8.333554e-001  5.000000e+000
      vertex  1.385819e+000  5.740252e-001  0.000000e+000
      vertex  1.385819e+000  5.740252e-001  5.000000e+000
    endloop
  endfacet
  facet normal -9.569403e-001 -2.902846e-001  -0.000000e+000
    outer loop
      vertex  1.385819e+000  5.740252e-001  5.000000e+000
      vertex  1.385819e+000  5.740252e-001  0.000000e+000
      vertex  1.471178e+000  2.926355e-001  0.000000e+000
    endloop
  endfacet
  facet normal -9.569403e-001 -2.902846e-001  0.000000e+000
    outer loop
      vertex  1.385819e+000  5.740252e-001  5.000000e+000
      vertex  1.471178e+000  2.926355e-001  0.000000e+000
      vertex  1.471178e+000  2.926355e-001  5.000000e+000
    endloop
  endfacet
  facet normal -9.951847e-001 -9.801710e-002  -0.000000e+000
    outer loop
      vertex  1.471178e+000  2.926355e-001  5.000000e+000
      vertex  1.471178e+000  2.926355e-001  0.000000e+000
      vertex  1.500000e+000  0.000000e+000  0.000000e+000
    endloop
  endfacet
  facet normal -9.951847e-001 -9.801710e-002  0.000000e+000
    outer loop
      vertex  1.471178e+000  2.926355e-001  5.000000e+000
      vertex  1.500000e+000  0.000000e+000  0.000000e+000
      vertex  1.500000e+000  0.000000e+000  5.000000e+000
    endloop
  endfacet
  facet normal -9.801710e-002  9.951847e-001  0.000000e+000
    outer loop
      vertex -2.755364e-016 -1.500000e+000  0.000000e+000
      vertex  2.926355e-001 -1.471178e+000  5.000000e+000
      vertex  2.926355e-001 -1.471178e+000  0.000000e+000
    endloop
  endfacet
  facet normal -2.902846e-001  9.569403e-001  0.000000e+000
    outer loop
      vertex  2.926355e-001 -1.471178e+000  0.000000e+000
      vertex  2.926355e-001 -1.471178e+000  5.000000e+000
      vertex  5.740252e-001 -1.385819e+000  5.000000e+000
    endloop
  endfacet
  facet normal -2.902846e-001  9.569403e-001  0.000000e+000
    outer loop
      vertex  2.926355e-001 -1.471178e+000  0.000000e+000
      vertex  5.740252e-001 -1.385819e+000  5.000000e+000
      vertex  5.740252e-001 -1.385819e+000  0.000000e+000
    endloop
  endfacet
  facet normal -4.713967e-001  8.819212e-001  0.000000e+000
    outer loop
      vertex  5.740252e-001 -1.385819e+000  0.000000e+000
      vertex  5.740252e-001 -1.385819e+000  5.000000e+000
      vertex  8.333554e-001 -1.247204e+000  5.000000e+000
    endloop
  endfacet
  facet normal -4.713967e-001  8.819212e-001  0.000000e+000
    outer loop
      vertex  5.740252e-001 -1.385819e+000  0.000000e+000
      vertex  8.333554e-001 -1.247204e+000  5.000000e+000
      vertex  8.333554e-001 -1.247204e+000  0.000000e+000
    endloop
  endfacet
  facet normal -6.343935e-001  7.730103e-001  0.000000e+000
    outer loop
      vertex  8.333554e-001 -1.247204e+000  0.000000e+000
      vertex  8.333554e-001 -1.247204e+000  5.000000e+000
      vertex  1.060660e+000 -1.060660e+000  5.000000e+000
    endloop
  endfacet
  facet normal -6.343935e-001  7.730103e-001  0.000000e+000
    outer loop
      vertex  8.333554e-001 -1.247204e+000  0.000000e+000
      vertex  1.060660e+000 -1.060660e+000  5.000000e+000
      vertex  1.060660e+000 -1.060660e+000  0.000000e+000
    endloop
  endfacet
  facet normal -7.730103e-001  6.343935e-001  0.000000e+000
    outer loop
      vertex  1.060660e+000 -1.060660e+000  0.000000e+000
      vertex  1.060660e+000 -1.060660e+000  5.000000e+000
      vertex  1.247204e+000 -8.333554e-001  5.000000e+000
    endloop
  endfacet
  facet normal -7.730103e-001  6.343935e-001  0.000000e+000
    outer loop
      vertex  1.060660e+000 -1.060660e+000  0.000000e+000
      vertex  1.247204e+000 -8.333554e-001  5.000000e+000
      vertex  1.247204e+000 -8.333554e-001  0.000000e+000
    endloop
  endfacet
  facet normal -8.819212e-001  4.713967e-001  0.000000e+000
    outer loop
      vertex  1.247204e+000 -8.333554e-001  0.000000e+000
      vertex  1.247204e+000 -8.333554e-001  5.000000e+000
      vertex  1.385819e+000 -5.740252e-001  5.000000e+000
    endloop
  endfacet
  facet normal -8.819212e-001  4.713967e-001  0.000000e+000
    outer loop
      vertex  1.247204e+000 -8.333554e-001  0.000000e+000
      vertex  1.385819e+000 -5.740252e-001  5.000000e+000
      vertex  1.385819e+000 -5.740252e-001  0.000000e+000
    endloop
  endfacet
  facet normal -9.569403e-001  2.902846e-001  0.000000e+000
    outer loop
      vertex  1.385819e+000 -5.740252e-001  0.000000e+000
      vertex  1.385819e+000 -5.740252e-001  5.000000e+000
      vertex  1.471178e+000 -2.926355e-001  5.000000e+000
    endloop
  endfacet
  facet normal -9.569403e-001  2.902846e-001  0.000000e+000
    outer loop
      vertex  1.385819e+000 -5.740252e-001  0.000000e+000
      vertex  1.471178e+000 -2.926355e-001  5.000000e+000
      vertex  1.471178e+000 -2.926355e-001  0.000000e+000
    endloop
  endfacet
  facet normal -9.951847e-001  9.801710e-002  0.000000e+000
    outer loop
      vertex  1.471178e+000 -2.926355e-001  0.000000e+000
      vertex  1.471178e+000 -2.926355e-001  5.000000e+000
      vertex  1.500000e+000  0.000000e+000  5.000000e+000
    endloop
  endfacet
  facet normal -9.951847e-001  9.801710e-002  0.000000e+000
    outer loop
      vertex  1.471178e+000 -2.926355e-001  0.000000e+000
      vertex  1.500000e+000  0.000000e+000  5.000000e+000
      vertex  1.500000e+000  0.000000e+000  0.000000e+000
    endloop
  endfacet
  facet normal -9.801710e-002  9.951847e-001  0.000000e+000
    outer loop
      vertex  2.926355e-001 -1.471178e+000  5.000000e+000
      vertex -2.755364e-016 -1.500000e+000  0.000000e+000
      vertex -2.755364e-016 -1.500000e+000  5.000000e+000
    endloop
  endfacet
  facet normal  9.801710e-002  9.951847e-001  0.000000e+000
    outer loop
      vertex -2.755364e-016 -1.500000e+000  5.000000e+000
      vertex -2.755364e-016 -1.500000e+000  0.000000e+000
      vertex -2.926355e-001 -1.471178e+000  0.000000e+000
    endloop
  endfacet
  facet normal  9.801710e-002  9.951847e-001  -0.000000e+000
    outer loop
      vertex -2.755364e-016 -1.500000e+000  5.000000e+000
      vertex -2.926355e-001 -1.471178e+000  0.000000e+000
      vertex -2.926355e-001 -1.471178e+000  5.000000e+000
    endloop
  endfacet
  facet normal  2.902846e-001  9.569403e-001  0.000000e+000
    outer loop
      vertex -2.926355e-001 -1.471178e+000  5.000000e+000
      vertex -2.926355e-001 -1.471178e+000  0.000000e+000
      vertex -5.740252e-001 -1.385819e+000  0.000000e+000
    endloop
  endfacet
  facet normal  2.902846e-001  9.569403e-001  -0.000000e+000
    outer loop
      vertex -2.926355e-001 -1.471178e+000  5.000000e+000
      vertex -5.740252e-001 -1.385819e+000  0.000000e+000
      vertex -5.740252e-001 -1.385819e+000  5.000000e+000
    endloop
  endfacet
  facet normal  4.713967e-001  8.819212e-001  0.000000e+000
    outer loop
      vertex -5.740252e-001 -1.385819e+000  5.000000e+000
      vertex -5.740252e-001 -1.385819e+000  0.000000e+000
      vertex -8.333554e-001 -1.247204e+000  0.000000e+000
    endloop
  endfacet
  facet normal  4.713967e-001  8.819212e-001  -0.000000e+000
    outer loop
      vertex -5.740252e-001 -1.385819e+000  5.000000e+000
      vertex -8.333554e-001 -1.247204e+000  0.000000e+000
      vertex -8.333554e-001 -1.247204e+000  5.000000e+000
    endloop
  endfacet
  facet normal  6.343935e-001  7.730103e-001  0.000000e+000
    outer loop
      vertex -8.333554e-001 -1.247204e+000  5.000000e+000
      vertex -8.333554e-001 -1.247204e+000  0.000000e+000
      vertex -1.060660e+000 -1.060660e+000  0.000000e+000
    endloop
  endfacet
  facet normal  6.343935e-001  7.730103e-001  -0.000000e+000
    outer loop
      vertex -8.333554e-001 -1.247204e+000  5.000000e+000
      vertex -1.060660e+000 -1.060660e+000  0.000000e+000
      vertex -1.060660e+000 -1.060660e+000  5.000000e+000
    endloop
  endfacet
  facet normal  7.730103e-001  6.343935e-001  0.000000e+000
    outer loop
      vertex -1.060660e+000 -1.060660e+000  5.000000e+000
      vertex -1.060660e+000 -1.060660e+000  0.000000e+000
      vertex -1.247204e+000 -8.333554e-001  0.000000e+000
    endloop
  endfacet
  facet normal  7.730103e-001  6.343935e-001  -0.000000e+000
    outer loop
      vertex -1.060660e+000 -1.060660e+000  5.000000e+000
      vertex -1.247204e+000 -8.333554e-001  0.000000e+000
      vertex -1.247204e+000 -8.333554e-001  5.000000e+000
    endloop
  endfacet
  facet normal  8.819212e-001  4.713967e-001  0.000000e+000
    outer loop
      vertex -1.247204e+000 -8.333554e-001  5.000000e+000
      vertex -1.247204e+000 -8.333554e-001  0.000000e+000
      vertex -1.385819e+000 -5.740252e-001  0.000000e+000
    endloop
  endfacet
  facet normal  8.819212e-001  4.713967e-001  -0.000000e+000
    outer loop
      vertex -1.247204e+000 -8.333554e-001  5.000000e+000
      vertex -1.385819e+000 -5.740252e-001  0.000000e+000
      vertex -1.385819e+000 -5.740252e-001  5.000000e+000
    endloop
  endfacet
  facet normal  9.569403e-001  2.902846e-001  0.000000e+000
    outer loop
      vertex -1.385819e+000 -5.740252e-001  5.000000e+000
      vertex -1.385819e+000 -5.740252e-001  0.000000e+000
      vertex -1.471178e+000 -2.926355e-001  0.000000e+000
    endloop
  endfacet
  facet normal  9.569403e-001  2.902846e-001  -0.000000e+000
    outer loop
      vertex -1.385819e+000 -5.740252e-001  5.000000e+000
      vertex -1.471178e+000 -2.926355e-001  0.000000e+000
      vertex -1.471178e+000 -2.926355e-001  5.000000e+000
    endloop
  endfacet
  facet normal  9.951847e-001  9.801710e-002  0.000000e+000
    outer loop
      vertex -1.471178e+000 -2.926355e-001  5.000000e+000
      vertex -1.471178e+000 -2.926355e-001  0.000000e+000
      vertex -1.500000e+000  1.836910e-016  0.000000e+000
    endloop
  endfacet
  facet normal  9.951847e-001  9.801710e-002  -0.000000e+000
    outer loop
      vertex -1.471178e+000 -2.926355e-001  5.000000e+000
      vertex -1.500000e+000  1.836910e-016  0.000000e+000
      vertex -1.500000e+000  1.836910e-016  5.000000e+000
    endloop
  endfacet
  facet normal  9.976687e-001 -6.824246e-002  0.000000e+000
    outer loop
      vertex  4.000000e+000  0.000000e+000  0.000000e+000
      vertex  4.000000e+000  0.000000e+000  5.000000e+000
      vertex  3.962744e+000 -5.446666e-001  0.000000e+000
    endloop
  endfacet
  facet normal  9.976687e-001 -6.824246e-002  0.000000e+000
    outer loop
      vertex  3.962744e+000 -5.446666e-001  0.000000e+000
      vertex  4.000000e+000  0.000000e+000  5.000000e+000
      vertex  3.962744e+000 -5.446666e-001  5.000000e+000
    endloop
  endfacet
  facet normal  9.790841e-001 -2.034561e-001  0.000000e+000
    outer loop
      vertex  3.962744e+000 -5.446666e-001  0.000000e+000
      vertex  3.962744e+000 -5.446666e-001  5.000000e+000
      vertex  3.851669e+000 -1.079187e+000  0.000000e+000
    endloop
  endfacet
  facet normal  9.790841e-001 -2.034561e-001  0.000000e+000
    outer loop
      vertex  3.851669e+000 -1.079187e+000  0.000000e+000
      vertex  3.962744e+000 -5.446666e-001  5.000000e+000
      vertex  3.851669e+000 -1.079187e+000  5.000000e+000
    endloop
  endfacet
  facet normal  9.422609e-001 -3.348795e-001  0.000000e+000
    outer loop
      vertex  3.851669e+000 -1.079187e+000  0.000000e+000
      vertex  3.851669e+000 -1.079187e+000  5.000000e+000
      vertex  3.668845e+000 -1.593604e+000  0.000000e+000
    endloop
  endfacet
  facet normal  9.422609e-001 -3.348795e-001  0.000000e+000
    outer loop
      vertex  3.668845e+000 -1.593604e+000  0.000000e+000
      vertex  3.851669e+000 -1.079187e+000  5.000000e+000
      vertex  3.668845e+000 -1.593604e+000  5.000000e+000
    endloop
  endfacet
  facet normal  8.878852e-001 -4.600649e-001  0.000000e+000
    outer loop
      vertex  3.668845e+000 -1.593604e+000  0.000000e+000
      vertex  3.668845e+000 -1.593604e+000  5.000000e+000
      vertex  3.417678e+000 -2.078336e+000  0.000000e+000
    endloop
  endfacet
  facet normal  8.878852e-001 -4.600649e-001  0.000000e+000
    outer loop
      vertex  3.417678e+000 -2.078336e+000  0.000000e+000
      vertex  3.668845e+000 -1.593604e+000  5.000000e+000
      vertex  3.417678e+000 -2.078336e+000  5.000000e+000
    endloop
  endfacet
  facet normal  8.169699e-001 -5.766802e-001  0.000000e+000
    outer loop
      vertex  3.417678e+000 -2.078336e+000  0.000000e+000
      vertex  3.417678e+000 -2.078336e+000  5.000000e+000
      vertex  3.102845e+000 -2.524352e+000  0.000000e+000
    endloop
  endfacet
  facet normal  8.169699e-001 -5.766802e-001  0.000000e+000
    outer loop
      vertex  3.102845e+000 -2.524352e+000  0.000000e+000
      vertex  3.417678e+000 -2.078336e+000  5.000000e+000
      vertex  3.102845e+000 -2.524352e+000  5.000000e+000
    endloop
  endfacet
  facet normal  7.308360e-001 -6.825531e-001  0.000000e+000
    outer loop
      vertex  3.102845e+000 -2.524352e+000  0.000000e+000
      vertex  3.102845e+000 -2.524352e+000  5.000000e+000
      vertex  2.730213e+000 -2.923344e+000  0.000000e+000
    endloop
  endfacet
  facet normal  7.308360e-001 -6.825531e-001  0.000000e+000
    outer loop
      vertex  2.730213e+000 -2.923344e+000  0.000000e+000
      vertex  3.102845e+000 -2.524352e+000  5.000000e+000
      vertex  2.730213e+000 -2.923344e+000  5.000000e+000
    endloop
  endfacet
  facet normal  6.310876e-001 -7.757115e-001  0.000000e+000
    outer loop
      vertex  2.730213e+000 -2.923344e+000  0.000000e+000
      vertex  2.730213e+000 -2.923344e+000  5.000000e+000
      vertex  2.306721e+000 -3.267879e+000  0.000000e+000
    endloop
  endfacet
  facet normal  6.310876e-001 -7.757115e-001  0.000000e+000
    outer loop
      vertex  2.306721e+000 -3.267879e+000  0.000000e+000
      vertex  2.730213e+000 -2.923344e+000  5.000000e+000
      vertex  2.306721e+000 -3.267879e+000  5.000000e+000
    endloop
  endfacet
  facet normal  5.195841e-001 -8.544193e-001  0.000000e+000
    outer loop
      vertex  2.306721e+000 -3.267879e+000  0.000000e+000
      vertex  2.306721e+000 -3.267879e+000  5.000000e+000
      vertex  1.840260e+000 -3.551541e+000  0.000000e+000
    endloop
  endfacet
  facet normal  5.195841e-001 -8.544193e-001  0.000000e+000
    outer loop
      vertex  1.840260e+000 -3.551541e+000  0.000000e+000
      vertex  2.306721e+000 -3.267879e+000  5.000000e+000
      vertex  1.840260e+000 -3.551541e+000  5.000000e+000
    endloop
  endfacet
  facet normal  3.984011e-001 -9.172112e-001  0.000000e+000
    outer loop
      vertex  1.840260e+000 -3.551541e+000  0.000000e+000
      vertex  1.840260e+000 -3.551541e+000  5.000000e+000
      vertex  1.339518e+000 -3.769044e+000  0.000000e+000
    endloop
  endfacet
  facet normal  3.984011e-001 -9.172112e-001  0.000000e+000
    outer loop
      vertex  1.339518e+000 -3.769044e+000  0.000000e+000
      vertex  1.840260e+000 -3.551541e+000  5.000000e+000
      vertex  1.339518e+000 -3.769044e+000  5.000000e+000
    endloop
  endfacet
  facet normal  2.697967e-001 -9.629173e-001  0.000000e+000
    outer loop
      vertex  1.339518e+000 -3.769044e+000  0.000000e+000
      vertex  1.339518e+000 -3.769044e+000  5.000000e+000
      vertex  8.138241e-001 -3.916336e+000  0.000000e+000
    endloop
  endfacet
  facet normal  2.697967e-001 -9.629173e-001  0.000000e+000
    outer loop
      vertex  8.138241e-001 -3.916336e+000  0.000000e+000
      vertex  1.339518e+000 -3.769044e+000  5.000000e+000
      vertex  8.138241e-001 -3.916336e+000  5.000000e+000
    endloop
  endfacet
  facet normal  1.361666e-001 -9.906859e-001  0.000000e+000
    outer loop
      vertex  8.138241e-001 -3.916336e+000  0.000000e+000
      vertex  8.138241e-001 -3.916336e+000  5.000000e+000
      vertex  2.729697e-001 -3.990675e+000  0.000000e+000
    endloop
  endfacet
  facet normal  1.361666e-001 -9.906859e-001  0.000000e+000
    outer loop
      vertex  2.729697e-001 -3.990675e+000  0.000000e+000
      vertex  8.138241e-001 -3.916336e+000  5.000000e+000
      vertex  2.729697e-001 -3.990675e+000  5.000000e+000
    endloop
  endfacet
  facet normal  0.000000e+000 -1.000000e+000  -0.000000e+000
    outer loop
      vertex  2.729697e-001 -3.990675e+000  0.000000e+000
      vertex  2.729697e-001 -3.990675e+000  5.000000e+000
      vertex -2.729697e-001 -3.990675e+000  0.000000e+000
    endloop
  endfacet
  facet normal  0.000000e+000 -1.000000e+000  0.000000e+000
    outer loop
      vertex -2.729697e-001 -3.990675e+000  0.000000e+000
      vertex  2.729697e-001 -3.990675e+000  5.000000e+000
      vertex -2.729697e-001 -3.990675e+000  5.000000e+000
    endloop
  endfacet
  facet normal -1.361666e-001 -9.906859e-001  -0.000000e+000
    outer loop
      vertex -2.729697e-001 -3.990675e+000  0.000000e+000
      vertex -2.729697e-001 -3.990675e+000  5.000000e+000
      vertex -8.138241e-001 -3.916336e+000  0.000000e+000
    endloop
  endfacet
  facet normal -1.361666e-001 -9.906859e-001  0.000000e+000
    outer loop
      vertex -8.138241e-001 -3.916336e+000  0.000000e+000
      vertex -2.729697e-001 -3.990675e+000  5.000000e+000
      vertex -8.138241e-001 -3.916336e+000  5.000000e+000
    endloop
  endfacet
  facet normal -2.697967e-001 -9.629173e-001  -0.000000e+000
    outer loop
      vertex -8.138241e-001 -3.916336e+000  0.000000e+000
      vertex -8.138241e-001 -3.916336e+000  5.000000e+000
      vertex -1.339518e+000 -3.769044e+000  0.000000e+000
    endloop
  endfacet
  facet normal -2.697967e-001 -9.629173e-001  0.000000e+000
    outer loop
      vertex -1.339518e+000 -3.769044e+000  0.000000e+000
      vertex -8.138241e-001 -3.916336e+000  5.000000e+000
      vertex -1.339518e+000 -3.769044e+000  5.000000e+000
    endloop
  endfacet
  facet normal -3.984011e-001 -9.172112e-001  -0.000000e+000
    outer loop
      vertex -1.339518e+000 -3.769044e+000  0.000000e+000
      vertex -1.339518e+000 -3.769044e+000  5.000000e+000
      vertex -1.840260e+000 -3.551541e+000  0.000000e+000
    endloop
  endfacet
  facet normal -3.984011e-001 -9.172112e-001  0.000000e+000
    outer loop
      vertex -1.840260e+000 -3.551541e+000  0.000000e+000
      vertex -1.339518e+000 -3.769044e+000  5.000000e+000
      vertex -1.840260e+000 -3.551541e+000  5.000000e+000
    endloop
  endfacet
  facet normal -5.195841e-001 -8.544193e-001  -0.000000e+000
    outer loop
      vertex -1.840260e+000 -3.551541e+000  0.000000e+000
      vertex -1.840260e+000 -3.551541e+000  5.000000e+000
      vertex -2.306721e+000 -3.267879e+000  0.000000e+000
    endloop
  endfacet
  facet normal -5.195841e-001 -8.544193e-001  0.000000e+000
    outer loop
      vertex -2.306721e+000 -3.267879e+000  0.000000e+000
      vertex -1.840260e+000 -3.551541e+000  5.000000e+000
      vertex -2.306721e+000 -3.267879e+000  5.000000e+000
    endloop
  endfacet
  facet normal -6.310876e-001 -7.757115e-001  -0.000000e+000
    outer loop
      vertex -2.306721e+000 -3.267879e+000  0.000000e+000
      vertex -2.306721e+000 -3.267879e+000  5.000000e+000
      vertex -2.730213e+000 -2.923344e+000  0.000000e+000
    endloop
  endfacet
  facet normal -6.310876e-001 -7.757115e-001  0.000000e+000
    outer loop
      vertex -2.730213e+000 -2.923344e+000  0.000000e+000
      vertex -2.306721e+000 -3.267879e+000  5.000000e+000
      vertex -2.730213e+000 -2.923344e+000  5.000000e+000
    endloop
  endfacet
  facet normal -7.308360e-001 -6.825531e-001  -0.000000e+000
    outer loop
      vertex -2.730213e+000 -2.923344e+000  0.000000e+000
      vertex -2.730213e+000 -2.923344e+000  5.000000e+000
      vertex -3.102845e+000 -2.524352e+000  0.000000e+000
    endloop
  endfacet
  facet normal -7.308360e-001 -6.825531e-001  0.000000e+000
    outer loop
      vertex -3.102845e+000 -2.524352e+000  0.000000e+000
      vertex -2.730213e+000 -2.923344e+000  5.000000e+000
      vertex -3.102845e+000 -2.524352e+000  5.000000e+000
    endloop
  endfacet
  facet normal -8.169699e-001 -5.766802e-001  -0.000000e+000
    outer loop
      vertex -3.102845e+000 -2.524352e+000  0.000000e+000
      vertex -3.102845e+000 -2.524352e+000  5.000000e+000
      vertex -3.417678e+000 -2.078336e+000  0.000000e+000
    endloop
  endfacet
  facet normal -8.169699e-001 -5.766802e-001  0.000000e+000
    outer loop
      vertex -3.417678e+000 -2.078336e+000  0.000000e+000
      vertex -3.102845e+000 -2.524352e+000  5.000000e+000
      vertex -3.417678e+000 -2.078336e+000  5.000000e+000
    endloop
  endfacet
  facet normal -8.878852e-001 -4.600649e-001  -0.000000e+000
    outer loop
      vertex -3.417678e+000 -2.078336e+000  0.000000e+000
      vertex -3.417678e+000 -2.078336e+000  5.000000e+000
      vertex -3.668845e+000 -1.593604e+000  0.000000e+000
    endloop
  endfacet
  facet normal -8.878852e-001 -4.600649e-001  0.000000e+000
    outer loop
      vertex -3.668845e+000 -1.593604e+000  0.000000e+000
      vertex -3.417678e+000 -2.078336e+000  5.000000e+000
      vertex -3.668845e+000 -1.593604e+000  5.000000e+000
    endloop
  endfacet
  facet normal -9.422609e-001 -3.348795e-001  -0.000000e+000
    outer loop
      vertex -3.668845e+000 -1.593604e+000  0.000000e+000
      vertex -3.668845e+000 -1.593604e+000  5.000000e+000
      vertex -3.851669e+000 -1.079187e+000  0.000000e+000
    endloop
  endfacet
  facet normal -9.422609e-001 -3.348795e-001  0.000000e+000
    outer loop
      vertex -3.851669e+000 -1.079187e+000  0.000000e+000
      vertex -3.668845e+000 -1.593604e+000  5.000000e+000
      vertex -3.851669e+000 -1.079187e+000  5.000000e+000
    endloop
  endfacet
  facet normal -9.790841e-001 -2.034561e-001  -0.000000e+000
    outer loop
      vertex -3.851669e+000 -1.079187e+000  0.000000e+000
      vertex -3.851669e+000 -1.079187e+000  5.000000e+000
      vertex -3.962744e+000 -5.446666e-001  0.000000e+000
    endloop
  endfacet
  facet normal -9.790841e-001 -2.034561e-001  0.000000e+000
    outer loop
      vertex -3.962744e+000 -5.446666e-001  0.000000e+000
      vertex -3.851669e+000 -1.079187e+000  5.000000e+000
      vertex -3.962744e+000 -5.446666e-001  5.000000e+000
    endloop
  endfacet
  facet normal -9.976687e-001 -6.824246e-002  -0.000000e+000
    outer loop
      vertex -3.962744e+000 -5.446666e-001  0.000000e+000
      vertex -3.962744e+000 -5.446666e-001  5.000000e+000
      vertex -4.000000e+000  4.898425e-016  0.000000e+000
    endloop
  endfacet
  facet normal -9.976687e-001 -6.824246e-002  0.000000e+000
    outer loop
      vertex -4.000000e+000  4.898425e-016  0.000000e+000
      vertex -3.962744e+000 -5.446666e-001  5.000000e+000
      vertex -4.000000e+000  4.898425e-016  5.000000e+000
    endloop
  endfacet
  facet normal -9.976687e-001  6.824246e-002  0.000000e+000
    outer loop
      vertex -4.000000e+000  4.898425e-016  0.000000e+000
      vertex -4.000000e+000  4.898425e-016  5.000000e+000
      vertex -3.962744e+000  5.446666e-001  0.000000e+000
    endloop
  endfacet
  facet normal -9.976687e-001  6.824246e-002  0.000000e+000
    outer loop
      vertex -3.962744e+000  5.446666e-001  0.000000e+000
      vertex -4.000000e+000  4.898425e-016  5.000000e+000
      vertex -3.962744e+000  5.446666e-001  5.000000e+000
    endloop
  endfacet
  facet normal -9.790841e-001  2.034561e-001  0.000000e+000
    outer loop
      vertex -3.962744e+000  5.446666e-001  0.000000e+000
      vertex -3.962744e+000  5.446666e-001  5.000000e+000
      vertex -3.851669e+000  1.079187e+000  0.000000e+000
    endloop
  endfacet
  facet normal -9.790841e-001  2.034561e-001  0.000000e+000
    outer loop
      vertex -3.851669e+000  1.079187e+000  0.000000e+000
      vertex -3.962744e+000  5.446666e-001  5.000000e+000
      vertex -3.851669e+000  1.079187e+000  5.000000e+000
    endloop
  endfacet
  facet normal -9.422609e-001  3.348795e-001  0.000000e+000
    outer loop
      vertex -3.851669e+000  1.079187e+000  0.000000e+000
      vertex -3.851669e+000  1.079187e+000  5.000000e+000
      vertex -3.668845e+000  1.593604e+000  0.000000e+000
    endloop
  endfacet
  facet normal -9.422609e-001  3.348795e-001  0.000000e+000
    outer loop
      vertex -3.668845e+000  1.593604e+000  0.000000e+000
      vertex -3.851669e+000  1.079187e+000  5.000000e+000
      vertex -3.668845e+000  1.593604e+000  5.000000e+000
    endloop
  endfacet
  facet normal -8.878852e-001  4.600649e-001  0.000000e+000
    outer loop
      vertex -3.668845e+000  1.593604e+000  0.000000e+000
      vertex -3.668845e+000  1.593604e+000  5.000000e+000
      vertex -3.417678e+000  2.078336e+000  0.000000e+000
    endloop
  endfacet
  facet normal -8.878852e-001  4.600649e-001  0.000000e+000
    outer loop
      vertex -3.417678e+000  2.078336e+000  0.000000e+000
      vertex -3.668845e+000  1.593604e+000  5.000000e+000
      vertex -3.417678e+000  2.078336e+000  5.000000e+000
    endloop
  endfacet
  facet normal -8.169699e-001  5.766802e-001  0.000000e+000
    outer loop
      vertex -3.417678e+000  2.078336e+000  0.000000e+000
      vertex -3.417678e+000  2.078336e+000  5.000000e+000
      vertex -3.102845e+000  2.524352e+000  0.000000e+000
    endloop
  endfacet
  facet normal -8.169699e-001  5.766802e-001  0.000000e+000
    outer loop
      vertex -3.102845e+000  2.524352e+000  0.000000e+000
      vertex -3.417678e+000  2.078336e+000  5.000000e+000
      vertex -3.102845e+000  2.524352e+000  5.000000e+000
    endloop
  endfacet
  facet normal -7.308360e-001  6.825531e-001  0.000000e+000
    outer loop
      vertex -3.102845e+000  2.524352e+000  0.000000e+000
      vertex -3.102845e+000  2.524352e+000  5.000000e+000
      vertex -2.730213e+000  2.923344e+000  0.000000e+000
    endloop
  endfacet
  facet normal -7.308360e-001  6.825531e-001  0.000000e+000
    outer loop
      vertex -2.730213e+000  2.923344e+000  0.000000e+000
      vertex -3.102845e+000  2.524352e+000  5.000000e+000
      vertex -2.730213e+000  2.923344e+000  5.000000e+000
    endloop
  endfacet
  facet normal -6.310876e-001  7.757115e-001  0.000000e+000
    outer loop
      vertex -2.730213e+000  2.923344e+000  0.000000e+000
      vertex -2.730213e+000  2.923344e+000  5.000000e+000
      vertex -2.306721e+000  3.267879e+000  0.000000e+000
    endloop
  endfacet
  facet normal -6.310876e-001  7.757115e-001  0.000000e+000
    outer loop
      vertex -2.306721e+000  3.267879e+000  0.000000e+000
      vertex -2.730213e+000  2.923344e+000  5.000000e+000
      vertex -2.306721e+000  3.267879e+000  5.000000e+000
    endloop
  endfacet
  facet normal -5.195841e-001  8.544193e-001  0.000000e+000
    outer loop
      vertex -2.306721e+000  3.267879e+000  0.000000e+000
      vertex -2.306721e+000  3.267879e+000  5.000000e+000
      vertex -1.840260e+000  3.551541e+000  0.000000e+000
    endloop
  endfacet
  facet normal -5.195841e-001  8.544193e-001  0.000000e+000
    outer loop
      vertex -1.840260e+000  3.551541e+000  0.000000e+000
      vertex -2.306721e+000  3.267879e+000  5.000000e+000
      vertex -1.840260e+000  3.551541e+000  5.000000e+000
    endloop
  endfacet
  facet normal -3.984011e-001  9.172112e-001  0.000000e+000
    outer loop
      vertex -1.840260e+000  3.551541e+000  0.000000e+000
      vertex -1.840260e+000  3.551541e+000  5.000000e+000
      vertex -1.339518e+000  3.769044e+000  0.000000e+000
    endloop
  endfacet
  facet normal -3.984011e-001  9.172112e-001  0.000000e+000
    outer loop
      vertex -1.339518e+000  3.769044e+000  0.000000e+000
      vertex -1.840260e+000  3.551541e+000  5.000000e+000
      vertex -1.339518e+000  3.769044e+000  5.000000e+000
    endloop
  endfacet
  facet normal -2.697967e-001  9.629173e-001  0.000000e+000
    outer loop
      vertex -1.339518e+000  3.769044e+000  0.000000e+000
      vertex -1.339518e+000  3.769044e+000  5.000000e+000
      vertex -8.138241e-001  3.916336e+000  0.000000e+000
    endloop
  endfacet
  facet normal -2.697967e-001  9.629173e-001  0.000000e+000
    outer loop
      vertex -8.138241e-001  3.916336e+000  0.000000e+000
      vertex -1.339518e+000  3.769044e+000  5.000000e+000
      vertex -8.138241e-001  3.916336e+000  5.000000e+000
    endloop
  endfacet
  facet normal -1.361666e-001  9.906859e-001  0.000000e+000
    outer loop
      vertex -8.138241e-001  3.916336e+000  0.000000e+000
      vertex -8.138241e-001  3.916336e+000  5.000000e+000
      vertex -2.729697e-001  3.990675e+000  0.000000e+000
    endloop
  endfacet
  facet normal -1.361666e-001  9.906859e-001  0.000000e+000
    outer loop
      vertex -2.729697e-001  3.990675e+000  0.000000e+000
      vertex -8.138241e-001  3.916336e+000  5.000000e+000
      vertex -2.729697e-001  3.990675e+000  5.000000e+000
    endloop
  endfacet
  facet normal  0.000000e+000  1.000000e+000  0.000000e+000
    outer loop
      vertex -2.729697e-001  3.990675e+000  0.000000e+000
      vertex -2.729697e-001  3.990675e+000  5.000000e+000
      vertex  2.729697e-001  3.990675e+000  0.000000e+000
    endloop
  endfacet
  facet normal  0.000000e+000  1.000000e+000  -0.000000e+000
    outer loop
      vertex  2.729697e-001  3.990675e+000  0.000000e+000
      vertex -2.729697e-001  3.990675e+000  5.000000e+000
      vertex  2.729697e-001  3.990675e+000  5.000000e+000
    endloop
  endfacet
  facet normal  1.361666e-001  9.906859e-001  0.000000e+000
    outer loop
      vertex  2.729697e-001  3.990675e+000  0.000000e+000
      vertex  2.729697e-001  3.990675e+000  5.000000e+000
      vertex  8.138241e-001  3.916336e+000  0.000000e+000
    endloop
  endfacet
  facet normal  1.361666e-001  9.906859e-001  -0.000000e+000
    outer loop
      vertex  8.138241e-001  3.916336e+000  0.000000e+000
      vertex  2.729697e-001  3.990675e+000  5.000000e+000
      vertex  8.138241e-001  3.916336e+000  5.000000e+000
    endloop
  endfacet
  facet normal  2.697967e-001  9.629173e-001  0.000000e+000
    outer loop
      vertex  8.138241e-001  3.916336e+000  0.000000e+000
      vertex  8.138241e-001  3.916336e+000  5.000000e+000
      vertex  1.339518e+000  3.769044e+000  0.000000e+000
    endloop
  endfacet
  facet normal  2.697967e-001  9.629173e-001  -0.000000e+000
    outer loop
      vertex  1.339518e+000  3.769044e+000  0.000000e+000
      vertex  8.138241e-001  3.916336e+000  5.000000e+000
      vertex  1.339518e+000  3.769044e+000  5.000000e+000
    endloop
  endfacet
  facet normal  3.984011e-001  9.172112e-001  0.000000e+000
    outer loop
      vertex  1.339518e+000  3.769044e+000  0.000000e+000
      vertex  1.339518e+000  3.769044e+000  5.000000e+000
      vertex  1.840260e+000  3.551541e+000  0.000000e+000
    endloop
  endfacet
  facet normal  3.984011e-001  9.172112e-001  -0.000000e+000
    outer loop
      vertex  1.840260e+000  3.551541e+000  0.000000e+000
      vertex  1.339518e+000  3.769044e+000  5.000000e+000
      vertex  1.840260e+000  3.551541e+000  5.000000e+000
    endloop
  endfacet
  facet normal  5.195841e-001  8.544193e-001  0.000000e+000
    outer loop
      vertex  1.840260e+000  3.551541e+000  0.000000e+000
      vertex  1.840260e+000  3.551541e+000  5.000000e+000
      vertex  2.306721e+000  3.267879e+000  0.000000e+000
    endloop
  endfacet
  facet normal  5.195841e-001  8.544193e-001  -0.000000e+000
    outer loop
      vertex  2.306721e+000  3.267879e+000  0.000000e+000
      vertex  1.840260e+000  3.551541e+000  5.000000e+000
      vertex  2.306721e+000  3.267879e+000  5.000000e+000
    endloop
  endfacet
  facet normal  6.310876e-001  7.757115e-001  0.000000e+000
    outer loop
      vertex  2.306721e+000  3.267879e+000  0.000000e+000
      vertex  2.306721e+000  3.267879e+000  5.000000e+000
      vertex  2.730213e+000  2.923344e+000  0.000000e+000
    endloop
  endfacet
  facet normal  6.310876e-001  7.757115e-001  -0.000000e+000
    outer loop
      vertex  2.730213e+000  2.923344e+000  0.000000e+000
      vertex  2.306721e+000  3.267879e+000  5.000000e+000
      vertex  2.730213e+000  2.923344e+000  5.000000e+000
    endloop
  endfacet
  facet normal  7.308360e-001  6.825531e-001  0.000000e+000
    outer loop
      vertex  2.730213e+000  2.923344e+000  0.000000e+000
      vertex  2.730213e+000  2.923344e+000  5.000000e+000
      vertex  3.102845e+000  2.524352e+000  0.000000e+000
    endloop
  endfacet
  facet normal  7.308360e-001  6.825531e-001  -0.000000e+000
    outer loop
      vertex  3.102845e+000  2.524352e+000  0.000000e+000
      vertex  2.730213e+000  2.923344e+000  5.000000e+000
      vertex  3.102845e+000  2.524352e+000  5.000000e+000
    endloop
  endfacet
  facet normal  8.169699e-001  5.766802e-001  0.000000e+000
    outer loop
      vertex  3.102845e+000  2.524352e+000  0.000000e+000
      vertex  3.102845e+000  2.524352e+000  5.000000e+000
      vertex  3.417678e+000  2.078336e+000  0.000000e+000
    endloop
  endfacet
  facet normal  8.169699e-001  5.766802e-001  -0.000000e+000
    outer loop
      vertex  3.417678e+000  2.078336e+000  0.000000e+000
      vertex  3.102845e+000  2.524352e+000  5.000000e+000
      vertex  3.417678e+000  2.078336e+000  5.000000e+000
    endloop
  endfacet
  facet normal  8.878852e-001  4.600649e-001  0.000000e+000
    outer loop
      vertex  3.417678e+000  2.078336e+000  0.000000e+000
      vertex  3.417678e+000  2.078336e+000  5.000000e+000
      vertex  3.668845e+000  1.593604e+000  0.000000e+000
    endloop
  endfacet
  facet normal  8.878852e-001  4.600649e-001  -0.000000e+000
    outer loop
      vertex  3.668845e+000  1.593604e+000  0.000000e+000
      vertex  3.417678e+000  2.078336e+000  5.000000e+000
      vertex  3.668845e+000  1.593604e+000  5.000000e+000
    endloop
  endfacet
  facet normal  9.422609e-001  3.348795e-001  0.000000e+000
    outer loop
      vertex  3.668845e+000  1.593604e+000  0.000000e+000
      vertex  3.668845e+000  1.593604e+000  5.000000e+000
      vertex  3.851669e+000  1.079187e+000  0.000000e+000
    endloop
  endfacet
  facet normal  9.422609e-001  3.348795e-001  -0.000000e+000
    outer loop
      vertex  3.851669e+000  1.079187e+000  0.000000e+000
      vertex  3.668845e+000  1.593604e+000  5.000000e+000
      vertex  3.851669e+000  1.079187e+000  5.000000e+000
    endloop
  endfacet
  facet normal  9.790841e-001  2.034561e-001  0.000000e+000
    outer loop
      vertex  3.851669e+000  1.079187e+000  0.000000e+000
      vertex  3.851669e+000  1.079187e+000  5.000000e+000
      vertex  3.962744e+000  5.446666e-001  0.000000e+000
    endloop
  endfacet
  facet normal  9.790841e-001  2.034561e-001  -0.000000e+000
    outer loop
      vertex  3.962744e+000  5.446666e-001  0.000000e+000
      vertex  3.851669e+000  1.079187e+000  5.000000e+000
      vertex  3.962744e+000  5.446666e-001  5.000000e+000
    endloop
  endfacet
  facet normal  9.976687e-001  6.824246e-002  0.000000e+000
    outer loop
      vertex  3.962744e+000  5.446666e-001  0.000000e+000
      vertex  3.962744e+000  5.446666e-001  5.000000e+000
      vertex  4.000000e+000  0.000000e+000  0.000000e+000
    endloop
  endfacet
  facet normal  9.976687e-001  6.824246e-002  -0.000000e+000
    outer loop
      vertex  4.000000e+000  0.000000e+000  0.000000e+000
      vertex  3.962744e+000  5.446666e-001  5.000000e+000
      vertex  4.000000e+000  0.000000e+000  5.000000e+000
    endloop
  endfacet
endsolid CATIA STL
